<svg id="Layer_1" enable-background="new 0 0 512 512" height="512" viewBox="0 0 512 512" width="512" xmlns="http://www.w3.org/2000/svg"><g><g><g><g id="XMLID_439_"><g id="XMLID_440_"><g id="XMLID_441_"><g id="XMLID_442_"><g id="XMLID_443_"><g id="XMLID_444_"><g id="XMLID_445_"><g id="XMLID_446_"><g id="XMLID_447_"><g id="XMLID_448_"><g id="XMLID_449_"><g id="XMLID_450_"><g id="XMLID_451_"><g id="XMLID_452_"><g id="XMLID_453_"><circle cx="256" cy="256" fill="#4f4359" r="256"/></g></g></g></g></g></g></g></g></g></g></g></g></g></g></g></g></g><path d="m511.98 257.604-125.738-125.737-254.376 254.376 125.737 125.737c140.11-.862 253.515-114.266 254.377-254.376z" fill="#372a44"/><g><g><g><g id="XMLID_1844_"><g id="XMLID_1845_"><g id="XMLID_1846_"><g id="XMLID_1847_"><g id="XMLID_1848_"><g id="XMLID_1849_"><g id="XMLID_1850_"><g id="XMLID_1851_"><g id="XMLID_2064_"><g id="XMLID_2065_"><g id="XMLID_2066_"><g id="XMLID_2067_"><g id="XMLID_2068_"><g id="XMLID_2069_"><g id="XMLID_2070_"><circle cx="255.999" cy="256" fill="#fed940" r="179.923"/></g></g></g></g></g></g></g></g></g></g></g></g></g></g></g></g></g><g><g><g id="XMLID_1852_"><g id="XMLID_1853_"><g id="XMLID_1854_"><g id="XMLID_1855_"><g id="XMLID_1997_"><g id="XMLID_1998_"><g id="XMLID_1999_"><g id="XMLID_2000_"><g id="XMLID_2001_"><g id="XMLID_2002_"><g id="XMLID_2003_"><g id="XMLID_2004_"><g id="XMLID_2005_"><g id="XMLID_2006_"><g><path d="m435.923 256c0 99.367-80.557 179.924-179.924 179.924v-359.848c99.368 0 179.924 80.557 179.924 179.924z" fill="#ffc024"/></g></g></g></g></g></g></g></g></g></g></g></g></g></g></g></g></g></g><g><g><circle cx="193.811" cy="185" fill="#7f6866" r="28.644"/><circle cx="318.189" cy="185" fill="#634c4c" r="28.645"/></g><path d="m362.39 250c0 33.04-11.91 62.96-31.16 84.62-5.44 6.12-11.46 11.57-17.96 16.26-9.14 6.57-19.24 11.62-30 14.81-8.7 2.6-17.84 3.98-27.27 3.98s-18.57-1.38-27.27-3.98c-10.76-3.19-20.86-8.24-30-14.81-29.54-21.27-49.12-58.5-49.12-100.88z" fill="#fff"/><path d="m362.39 250c0 33.04-11.91 62.96-31.16 84.62-5.44 6.12-11.46 11.57-17.96 16.26-9.14 6.57-19.24 11.62-30 14.81-8.7 2.6-17.84 3.98-27.27 3.98v-119.67z" fill="#efe8e6"/><g><g><path d="m228.73 250v115.69c-10.76-3.19-20.86-8.24-30-14.81v-100.88z" fill="#efe8e6"/></g><g><path d="m313.27 250v100.88c-9.14 6.57-19.24 11.62-30 14.81v-115.69z" fill="#e0d4d1"/></g></g></g></g></svg>