<svg id="Layer_1" enable-background="new 0 0 512 512" height="512" viewBox="0 0 512 512" width="512" xmlns="http://www.w3.org/2000/svg"><g><g><g><g id="XMLID_1862_"><g id="XMLID_1863_"><g id="XMLID_1864_"><g id="XMLID_1865_"><g id="XMLID_1866_"><g id="XMLID_1867_"><g id="XMLID_1868_"><g id="XMLID_1869_"><g id="XMLID_1884_"><g id="XMLID_1885_"><g id="XMLID_1886_"><g id="XMLID_1887_"><g id="XMLID_1888_"><g id="XMLID_1889_"><g id="XMLID_1890_"><circle cx="256" cy="256" fill="#4f4359" r="256"/></g></g></g></g></g></g></g></g></g></g></g></g></g></g></g></g></g><path d="m511.98 257.604-125.738-125.737-254.376 254.376 125.737 125.737c140.11-.862 253.515-114.266 254.377-254.376z" fill="#372a44"/><g><g><g><g id="XMLID_1954_"><g id="XMLID_1955_"><g id="XMLID_1956_"><g id="XMLID_1957_"><g id="XMLID_1958_"><g id="XMLID_1959_"><g id="XMLID_1960_"><g id="XMLID_1961_"><g id="XMLID_1990_"><g id="XMLID_1991_"><g id="XMLID_1992_"><g id="XMLID_1993_"><g id="XMLID_1994_"><g id="XMLID_1995_"><g id="XMLID_2086_"><circle cx="255.999" cy="256" fill="#fed940" r="179.923"/></g></g></g></g></g></g></g></g></g></g></g></g></g></g></g></g></g><g><g><g id="XMLID_1962_"><g id="XMLID_1963_"><g id="XMLID_1964_"><g id="XMLID_1965_"><g id="XMLID_1966_"><g id="XMLID_1967_"><g id="XMLID_1982_"><g id="XMLID_1983_"><g id="XMLID_1984_"><g id="XMLID_1985_"><g id="XMLID_1986_"><g id="XMLID_1987_"><g id="XMLID_1988_"><g id="XMLID_1989_"><g><path d="m435.923 256c0 99.367-80.557 179.924-179.924 179.924v-359.848c99.368 0 179.924 80.557 179.924 179.924z" fill="#ffc024"/></g></g></g></g></g></g></g></g></g></g></g></g></g></g></g></g></g></g><g><circle cx="193.811" cy="185" fill="#7f6866" r="28.644"/><circle cx="318.189" cy="185" fill="#634c4c" r="28.645"/></g><g><path d="m211.162 344.084c-29.944 0-45.328-14.804-57.689-26.699-2.539-2.443-4.936-4.75-7.353-6.831l24.24-26.089c3.172 2.73 6.045 5.495 8.824 8.168 10.294 9.906 17.095 16.451 31.979 16.451 14.887 0 21.687-6.547 31.98-16.457 12.361-11.901 27.745-26.711 57.696-26.711 29.944 0 45.328 14.804 57.689 26.699 2.539 2.443 4.936 4.75 7.353 6.831l-24.24 26.089c-3.172-2.73-6.045-5.495-8.824-8.168-10.294-9.906-17.095-16.451-31.979-16.451-14.887 0-21.687 6.547-31.98 16.457-12.361 11.9-27.745 26.711-57.696 26.711z" fill="#7f6866"/></g><g><g><path d="m365.88 299.45-24.24 26.09c-3.17-2.73-6.04-5.5-8.82-8.17-10.3-9.91-17.1-16.45-31.98-16.45-14.89 0-21.69 6.54-31.98 16.45-3.87 3.73-8.04 7.74-12.86 11.49v-47.72c10.57-8.23 24.27-15.22 44.84-15.22 29.94 0 45.33 14.8 57.69 26.7 2.54 2.44 4.93 4.75 7.35 6.83z" fill="#634c4c"/></g></g></g></svg>