<svg id="Layer_1" enable-background="new 0 0 512 512" height="512" viewBox="0 0 512 512" width="512" xmlns="http://www.w3.org/2000/svg"><g><g><g><g id="XMLID_217_"><g id="XMLID_218_"><g id="XMLID_219_"><g id="XMLID_235_"><g id="XMLID_239_"><g id="XMLID_240_"><g id="XMLID_241_"><g id="XMLID_242_"><g id="XMLID_243_"><g id="XMLID_244_"><g id="XMLID_245_"><g id="XMLID_246_"><g id="XMLID_247_"><g id="XMLID_249_"><g id="XMLID_250_"><circle cx="256" cy="256" fill="#4f4359" r="256"/></g></g></g></g></g></g></g></g></g></g></g></g></g></g></g></g></g><path d="m511.98 257.604-125.738-125.737-254.376 254.376 125.737 125.737c140.11-.862 253.515-114.266 254.377-254.376z" fill="#372a44"/><g><g><g><g id="XMLID_1743_"><g id="XMLID_1744_"><g id="XMLID_1745_"><g id="XMLID_1746_"><g id="XMLID_1747_"><g id="XMLID_1748_"><g id="XMLID_1749_"><g id="XMLID_1750_"><g id="XMLID_1808_"><g id="XMLID_1809_"><g id="XMLID_1810_"><g id="XMLID_1811_"><g id="XMLID_1812_"><g id="XMLID_1813_"><g id="XMLID_1814_"><circle cx="255.999" cy="256" fill="#fed940" r="179.923"/></g></g></g></g></g></g></g></g></g></g></g></g></g></g></g></g></g><g><g><g id="XMLID_1751_"><g id="XMLID_1752_"><g id="XMLID_1753_"><g id="XMLID_1754_"><g id="XMLID_1755_"><g id="XMLID_1756_"><g id="XMLID_1800_"><g id="XMLID_1801_"><g id="XMLID_1802_"><g id="XMLID_1803_"><g id="XMLID_1804_"><g id="XMLID_1805_"><g id="XMLID_1806_"><g id="XMLID_1807_"><g><path d="m435.923 256c0 99.367-80.557 179.924-179.924 179.924v-359.848c99.368 0 179.924 80.557 179.924 179.924z" fill="#ffc024"/></g></g></g></g></g></g></g></g></g></g></g></g></g></g></g></g></g></g><g><g><path d="m235.793 205.385h-30c0-10.354-8.424-18.777-18.777-18.777-10.354 0-18.778 8.423-18.778 18.777h-30c0-26.896 21.882-48.777 48.778-48.777 26.895-.001 48.777 21.881 48.777 48.777z" fill="#7f6866"/></g><g><path d="m373.763 205.385h-30c0-10.354-8.424-18.777-18.778-18.777s-18.777 8.423-18.777 18.777h-30c0-26.896 21.882-48.777 48.777-48.777 26.896-.001 48.778 21.881 48.778 48.777z" fill="#634c4c"/></g></g><g><g><path d="m269.425 387.081-13.424-26.829 27.176-13.598-10.312-6.415c-6.661-4.143-10.639-11.301-10.639-19.146-.001-7.846 3.977-15.003 10.638-19.148l10.316-6.418-27.18-13.602 13.426-26.828 40.348 20.192.59.367c6.66 4.144 10.637 11.301 10.638 19.146 0 7.845-3.977 15.002-10.637 19.146l-11.483 7.145 11.48 7.141c6.662 4.145 10.639 11.302 10.639 19.147-.001 7.845-3.977 15.003-10.64 19.147l-.59.367z" fill="#634c4c"/></g></g></g></svg>