<svg id="Layer_1" enable-background="new 0 0 512 512" height="512" viewBox="0 0 512 512" width="512" xmlns="http://www.w3.org/2000/svg"><g><g><g><g id="XMLID_1832_"><g id="XMLID_1833_"><g id="XMLID_1834_"><g id="XMLID_1835_"><g id="XMLID_1836_"><g id="XMLID_1837_"><g id="XMLID_1838_"><g id="XMLID_1839_"><g id="XMLID_1840_"><g id="XMLID_1841_"><g id="XMLID_1842_"><g id="XMLID_1843_"><g id="XMLID_1856_"><g id="XMLID_1857_"><g id="XMLID_1858_"><circle cx="256" cy="256" fill="#4f4359" r="256"/></g></g></g></g></g></g></g></g></g></g></g></g></g></g></g></g></g><path d="m511.136 277.021-124.894-124.894-254.376 254.376 104.772 104.772c6.392.478 12.848.725 19.362.725 134.306 0 244.443-103.429 255.136-234.979z" fill="#372a44"/><g><g><g><g id="XMLID_1791_"><g id="XMLID_1792_"><g id="XMLID_1793_"><g id="XMLID_1794_"><g id="XMLID_1795_"><g id="XMLID_1796_"><g id="XMLID_1797_"><g id="XMLID_1823_"><g id="XMLID_1824_"><g id="XMLID_1825_"><g id="XMLID_1826_"><g id="XMLID_1827_"><g id="XMLID_1828_"><g id="XMLID_1829_"><g id="XMLID_1830_"><circle cx="255.999" cy="276.26" fill="#fed940" r="179.923"/></g></g></g></g></g></g></g></g></g></g></g></g></g></g></g></g></g><g><g><g id="XMLID_974_"><g id="XMLID_975_"><g id="XMLID_976_"><g id="XMLID_977_"><g id="XMLID_978_"><g id="XMLID_979_"><g id="XMLID_995_"><g id="XMLID_996_"><g id="XMLID_1624_"><g id="XMLID_1686_"><g id="XMLID_1687_"><g id="XMLID_1688_"><g id="XMLID_1689_"><g id="XMLID_1690_"><g><path d="m435.923 276.26c0 99.367-80.557 179.924-179.924 179.924v-359.848c99.368 0 179.924 80.557 179.924 179.924z" fill="#ffc024"/></g></g></g></g></g></g></g></g></g></g></g></g></g></g></g></g></g></g><g><path d="m256 404.703c-57.606 0-104.471-41.469-104.471-92.442h35c0 31.674 31.164 57.442 69.471 57.442s69.471-25.769 69.471-57.442h35c0 50.972-46.866 92.442-104.471 92.442z" fill="#7f6866"/></g><g><g><path d="m360.47 312.26c0 50.97-46.86 92.44-104.47 92.44v-35c38.31 0 69.47-25.77 69.47-57.44z" fill="#634c4c"/></g></g><g><g><path d="m276.207 201.256h30c0 10.354 8.424 18.777 18.777 18.777 10.354 0 18.778-8.423 18.778-18.777h30c0 26.896-21.882 48.777-48.778 48.777-26.895.001-48.777-21.881-48.777-48.777z" fill="#634c4c"/></g><g><path d="m138.237 201.256h30c0 10.354 8.424 18.777 18.778 18.777s18.777-8.423 18.777-18.777h30c0 26.896-21.882 48.777-48.777 48.777-26.896.001-48.778-21.881-48.778-48.777z" fill="#7f6866"/></g></g><g><path d="m256 159.26c-31.705 0-62.892-6.07-87.817-17.091-27.597-12.203-42.796-28.428-42.796-45.686 0-17.266 15.251-33.326 42.941-45.222 24.77-10.64 55.905-16.501 87.672-16.501 63.077 0 130.612 24.802 130.612 61.723 0 17.258-15.198 33.483-42.796 45.686-24.924 11.021-56.111 17.091-87.816 17.091zm-100.586-62.769c.57 2.011 6.513 10.515 26.945 19.123 20.889 8.8 47.042 13.647 73.641 13.647s52.752-4.846 73.641-13.647c20.432-8.607 26.375-17.111 26.945-19.123-.588-1.973-6.578-10.281-26.952-18.585-20.8-8.478-46.95-13.146-73.634-13.146s-52.835 4.669-73.634 13.146c-20.376 8.305-26.365 16.613-26.952 18.585zm-.036-.153s.001 0 0 0z" fill="#4bccf9"/></g><g><path d="m256 34.76v30c26.68 0 52.83 4.67 73.63 13.15 20.38 8.3 26.37 16.61 26.96 18.58-.57 2.01-6.52 10.52-26.95 19.12-20.89 8.8-47.04 13.65-73.64 13.65v30c31.71 0 62.89-6.07 87.82-17.09 27.59-12.2 42.79-28.43 42.79-45.69 0-36.92-67.53-61.72-130.61-61.72z" fill="#2f9de0"/></g></g></svg>