<svg id="Layer_1" enable-background="new 0 0 512 512" height="512" viewBox="0 0 512 512" width="512" xmlns="http://www.w3.org/2000/svg"><g><g><g><g id="XMLID_1859_"><g id="XMLID_1860_"><g id="XMLID_1861_"><g id="XMLID_1870_"><g id="XMLID_1871_"><g id="XMLID_1872_"><g id="XMLID_1873_"><g id="XMLID_1874_"><g id="XMLID_1875_"><g id="XMLID_1876_"><g id="XMLID_1877_"><g id="XMLID_1878_"><g id="XMLID_1879_"><g id="XMLID_1901_"><g id="XMLID_1902_"><circle cx="256" cy="256" fill="#4f4359" r="256"/></g></g></g></g></g></g></g></g></g></g></g></g></g></g></g></g></g><path d="m511.98 257.605-125.738-125.738-254.376 254.376 125.737 125.737c140.11-.862 253.515-114.266 254.377-254.375z" fill="#372a44"/><g><g><g><g id="XMLID_675_"><g id="XMLID_676_"><g id="XMLID_677_"><g id="XMLID_678_"><g id="XMLID_679_"><g id="XMLID_680_"><g id="XMLID_681_"><g id="XMLID_1691_"><g id="XMLID_1692_"><g id="XMLID_1737_"><g id="XMLID_1738_"><g id="XMLID_1739_"><g id="XMLID_1740_"><g id="XMLID_1741_"><g id="XMLID_1790_"><circle cx="255.999" cy="256" fill="#fed940" r="179.922"/></g></g></g></g></g></g></g></g></g></g></g></g></g></g></g></g></g><ellipse cx="193.811" cy="198.178" fill="#fff" rx="41.5" ry="53.822"/><g><g><g id="XMLID_640_"><g id="XMLID_641_"><g id="XMLID_642_"><g id="XMLID_643_"><g id="XMLID_644_"><g id="XMLID_645_"><g id="XMLID_646_"><g id="XMLID_647_"><g id="XMLID_648_"><g id="XMLID_649_"><g id="XMLID_650_"><g id="XMLID_651_"><g id="XMLID_652_"><g id="XMLID_653_"><g><path d="m435.923 256c0 99.367-80.557 179.924-179.924 179.924v-359.848c99.368 0 179.924 80.557 179.924 179.924z" fill="#ffc024"/></g></g></g></g></g></g></g></g></g></g></g></g></g></g></g></g></g><ellipse cx="318.189" cy="198.178" fill="#efe8e6" rx="41.5" ry="53.822"/><g><ellipse cx="193.811" cy="173" fill="#7f6866" rx="28.644" ry="28.645" transform="matrix(.368 -.93 .93 .368 -38.367 289.555)"/><ellipse cx="318.189" cy="173" fill="#634c4c" rx="28.644" ry="28.645" transform="matrix(.368 -.93 .93 .368 40.244 405.207)"/></g></g><path d="m192.163 325.857h127.673v35h-127.673z" fill="#7f6866"/><path d="m256 325.86h63.84v35h-63.84z" fill="#634c4c"/></g></svg>