<svg id="Layer_1" enable-background="new 0 0 512 512" height="512" viewBox="0 0 512 512" width="512" xmlns="http://www.w3.org/2000/svg"><g><g><g><g id="XMLID_1382_"><g id="XMLID_1383_"><g id="XMLID_1384_"><g id="XMLID_1385_"><g id="XMLID_1386_"><g id="XMLID_1387_"><g id="XMLID_1388_"><g id="XMLID_1389_"><g id="XMLID_1390_"><g id="XMLID_1391_"><g id="XMLID_1392_"><g id="XMLID_1393_"><g id="XMLID_1438_"><g id="XMLID_1439_"><g id="XMLID_1831_"><circle cx="256" cy="256" fill="#4f4359" r="256"/></g></g></g></g></g></g></g></g></g></g></g></g></g></g></g></g></g><path d="m511.98 257.605-125.738-125.738-254.376 254.376 125.737 125.737c140.11-.862 253.515-114.266 254.377-254.375z" fill="#372a44"/><g><g><g><g id="XMLID_1350_"><g id="XMLID_1351_"><g id="XMLID_1352_"><g id="XMLID_1353_"><g id="XMLID_1354_"><g id="XMLID_1355_"><g id="XMLID_1356_"><g id="XMLID_1357_"><g id="XMLID_1358_"><g id="XMLID_1359_"><g id="XMLID_1360_"><g id="XMLID_1361_"><g id="XMLID_1362_"><g id="XMLID_1379_"><g id="XMLID_1380_"><circle cx="255.999" cy="256" fill="#fed940" r="179.922"/></g></g></g></g></g></g></g></g></g></g></g></g></g></g></g></g></g><g><g><g id="XMLID_655_"><g id="XMLID_656_"><g id="XMLID_657_"><g id="XMLID_658_"><g id="XMLID_659_"><g id="XMLID_673_"><g id="XMLID_674_"><g id="XMLID_725_"><g id="XMLID_1238_"><g id="XMLID_1239_"><g id="XMLID_1240_"><g id="XMLID_1241_"><g id="XMLID_1242_"><g id="XMLID_1243_"><g><path d="m435.923 256c0 99.367-80.557 179.924-179.924 179.924v-359.848c99.368 0 179.924 80.557 179.924 179.924z" fill="#ffc024"/></g></g></g></g></g></g></g></g></g></g></g></g></g></g></g></g></g><g><ellipse cx="193.811" cy="185" fill="#7f6866" rx="28.644" ry="28.645" transform="matrix(.368 -.93 .93 .368 -49.501 297.192)"/><ellipse cx="318.189" cy="185" fill="#634c4c" rx="28.644" ry="28.645" transform="matrix(.368 -.93 .93 .368 29.135 412.853)"/></g></g><circle cx="256" cy="319.73" fill="#7f6866" r="55.73"/><path d="m311.73 319.73c0 30.78-24.95 55.73-55.73 55.73v-111.46c30.78 0 55.73 24.95 55.73 55.73z" fill="#634c4c"/></g></svg>