<svg id="Layer_1" enable-background="new 0 0 512 512" height="512" viewBox="0 0 512 512" width="512" xmlns="http://www.w3.org/2000/svg"><g><g><g><g id="XMLID_1469_"><g id="XMLID_1470_"><g id="XMLID_1471_"><g id="XMLID_1472_"><g id="XMLID_1473_"><g id="XMLID_1474_"><g id="XMLID_1475_"><g id="XMLID_1476_"><g id="XMLID_1477_"><g id="XMLID_1478_"><g id="XMLID_1479_"><g id="XMLID_1480_"><g id="XMLID_1481_"><g id="XMLID_1482_"><g id="XMLID_1483_"><circle cx="256" cy="256" fill="#4f4359" r="256"/></g></g></g></g></g></g></g></g></g></g></g></g></g></g></g></g></g><path d="m511.98 257.604-125.738-125.737-254.376 254.376 125.737 125.737c140.11-.861 253.515-114.266 254.377-254.376z" fill="#372a44"/><g><g><g><g id="XMLID_1453_"><g id="XMLID_1454_"><g id="XMLID_1455_"><g id="XMLID_1456_"><g id="XMLID_1457_"><g id="XMLID_1458_"><g id="XMLID_1459_"><g id="XMLID_1460_"><g id="XMLID_1461_"><g id="XMLID_1462_"><g id="XMLID_1463_"><g id="XMLID_1464_"><g id="XMLID_1465_"><g id="XMLID_1466_"><g id="XMLID_1467_"><circle cx="255.999" cy="256" fill="#fed940" r="179.923"/></g></g></g></g></g></g></g></g></g></g></g></g></g></g></g></g></g><circle cx="193.811" cy="185" fill="#7f6866" r="28.644"/><g><g><g id="XMLID_1244_"><g id="XMLID_1245_"><g id="XMLID_1246_"><g id="XMLID_1247_"><g id="XMLID_1248_"><g id="XMLID_1249_"><g id="XMLID_1348_"><g id="XMLID_1349_"><g id="XMLID_1381_"><g id="XMLID_1440_"><g id="XMLID_1441_"><g id="XMLID_1442_"><g id="XMLID_1443_"><g id="XMLID_1444_"><g><path d="m435.923 256c0 99.367-80.557 179.924-179.924 179.924v-359.848c99.368 0 179.924 80.557 179.924 179.924z" fill="#ffc024"/></g></g></g></g></g></g></g></g></g></g></g></g></g></g></g></g></g><g><g><path d="m373.763 205.385h-30c0-10.354-8.424-18.777-18.778-18.777s-18.777 8.423-18.777 18.777h-30c0-26.896 21.882-48.777 48.777-48.777 26.896-.001 48.778 21.881 48.778 48.777z" fill="#634c4c"/></g></g><g><g><path d="m269.425 387.081-13.424-26.829 27.176-13.598-10.312-6.415c-6.661-4.144-10.639-11.301-10.639-19.146-.001-7.846 3.977-15.003 10.638-19.148l10.316-6.418-27.18-13.602 13.426-26.828 40.348 20.192.59.367c6.66 4.144 10.637 11.301 10.638 19.146 0 7.845-3.977 15.002-10.637 19.146l-11.483 7.145 11.48 7.141c6.662 4.145 10.639 11.302 10.639 19.147-.001 7.845-3.977 15.003-10.64 19.147l-.59.367z" fill="#634c4c"/></g></g></g><g><path d="m445.483 301.856c-24.772-8.702-34.99 14.935-34.99 14.935s-10.219-23.637-34.991-14.935c-25.614 8.998-34.99 62.842 34.991 90.245 69.981-27.403 60.605-81.247 34.99-90.245z" fill="#ff3b3b"/></g></g></svg>