<svg id="Layer_1" enable-background="new 0 0 512 512" height="512" viewBox="0 0 512 512" width="512" xmlns="http://www.w3.org/2000/svg"><g><g><g><g id="XMLID_1325_"><g id="XMLID_1326_"><g id="XMLID_1327_"><g id="XMLID_1336_"><g id="XMLID_1337_"><g id="XMLID_1338_"><g id="XMLID_1339_"><g id="XMLID_1340_"><g id="XMLID_1341_"><g id="XMLID_1342_"><g id="XMLID_1343_"><g id="XMLID_1344_"><g id="XMLID_1345_"><g id="XMLID_1346_"><g id="XMLID_1347_"><circle cx="256" cy="256" fill="#4f4359" r="256"/></g></g></g></g></g></g></g></g></g></g></g></g></g></g></g></g></g><path d="m511.98 257.604-125.738-125.737-254.376 254.376 125.737 125.737c140.11-.861 253.515-114.266 254.377-254.376z" fill="#372a44"/><g><g><g><g id="XMLID_1309_"><g id="XMLID_1310_"><g id="XMLID_1311_"><g id="XMLID_1312_"><g id="XMLID_1313_"><g id="XMLID_1314_"><g id="XMLID_1315_"><g id="XMLID_1316_"><g id="XMLID_1317_"><g id="XMLID_1318_"><g id="XMLID_1319_"><g id="XMLID_1320_"><g id="XMLID_1321_"><g id="XMLID_1322_"><g id="XMLID_1323_"><circle cx="255.999" cy="256" fill="#fed940" r="179.923"/></g></g></g></g></g></g></g></g></g></g></g></g></g></g></g></g></g><g><g><g id="XMLID_1191_"><g id="XMLID_1192_"><g id="XMLID_1193_"><g id="XMLID_1194_"><g id="XMLID_1195_"><g id="XMLID_1196_"><g id="XMLID_1212_"><g id="XMLID_1213_"><g id="XMLID_1229_"><g id="XMLID_1296_"><g id="XMLID_1297_"><g id="XMLID_1298_"><g id="XMLID_1299_"><g id="XMLID_1300_"><g><path d="m435.923 256c0 99.367-80.557 179.924-179.924 179.924v-359.848c99.368 0 179.924 80.557 179.924 179.924z" fill="#ffc024"/></g></g></g></g></g></g></g></g></g></g></g></g></g></g></g></g></g><g><path d="m148.119 276.297-3.416-.797c51.438 76.666 171.155 76.666 222.593 0l-3.416.797c-70.831 16.518-144.931 16.518-215.761 0z" fill="#7f6866"/><path d="m367.293 275.5c-25.714 38.333-68.504 57.5-111.293 57.5v-44.312c36.23 0 72.46-4.136 107.885-12.392z" fill="#634c4c"/></g><g><g><path d="m235.793 205.385h-30c0-10.354-8.424-18.777-18.777-18.777-10.355 0-18.778 8.423-18.778 18.777h-30c0-26.896 21.882-48.777 48.778-48.777 26.895-.001 48.777 21.881 48.777 48.777z" fill="#7f6866"/></g><g><path d="m373.763 205.385h-30c0-10.354-8.424-18.777-18.778-18.777s-18.777 8.423-18.777 18.777h-30c0-26.896 21.882-48.777 48.777-48.777 26.896-.001 48.778 21.881 48.778 48.777z" fill="#634c4c"/></g></g></g><path d="m355.39 290.63v56.87c0 9.27-7.25 17.18-16.52 17.4-6.1.14-11.49-2.96-14.58-7.69-1.47-2.27-3.45-4.11-5.72-5.39-2.28-1.28-4.87-2-7.57-2-8.64 0-15.65 7.01-15.65 15.65v1.67c0 10.86-8.57 20.05-19.42 20.19-5.53.07-10.55-2.14-14.17-5.76-3.56-3.57-5.76-8.49-5.76-13.92v-34.65c36.73 0 73.46-14.12 99.39-42.37z" fill="#efe8e6"/></g></svg>