<svg id="Layer_1" enable-background="new 0 0 512 512" height="512" viewBox="0 0 512 512" width="512" xmlns="http://www.w3.org/2000/svg"><g><g><g><g id="XMLID_1423_"><g id="XMLID_1424_"><g id="XMLID_1425_"><g id="XMLID_1426_"><g id="XMLID_1427_"><g id="XMLID_1428_"><g id="XMLID_1429_"><g id="XMLID_1430_"><g id="XMLID_1431_"><g id="XMLID_1432_"><g id="XMLID_1433_"><g id="XMLID_1434_"><g id="XMLID_1435_"><g id="XMLID_1436_"><g id="XMLID_1437_"><circle cx="256" cy="256" fill="#4f4359" r="256"/></g></g></g></g></g></g></g></g></g></g></g></g></g></g></g></g></g><path d="m511.98 257.604-125.738-125.737-254.376 254.376 125.737 125.737c140.11-.861 253.515-114.266 254.377-254.376z" fill="#372a44"/><g><g><g><g id="XMLID_1407_"><g id="XMLID_1408_"><g id="XMLID_1409_"><g id="XMLID_1410_"><g id="XMLID_1411_"><g id="XMLID_1412_"><g id="XMLID_1413_"><g id="XMLID_1414_"><g id="XMLID_1415_"><g id="XMLID_1416_"><g id="XMLID_1417_"><g id="XMLID_1418_"><g id="XMLID_1419_"><g id="XMLID_1420_"><g id="XMLID_1421_"><circle cx="255.999" cy="256" fill="#fed940" r="179.923"/></g></g></g></g></g></g></g></g></g></g></g></g></g></g></g></g></g><g><g><g id="XMLID_1301_"><g id="XMLID_1302_"><g id="XMLID_1303_"><g id="XMLID_1304_"><g id="XMLID_1305_"><g id="XMLID_1306_"><g id="XMLID_1307_"><g id="XMLID_1308_"><g id="XMLID_1324_"><g id="XMLID_1394_"><g id="XMLID_1395_"><g id="XMLID_1396_"><g id="XMLID_1397_"><g id="XMLID_1398_"><g><path d="m435.923 256c0 99.367-80.557 179.924-179.924 179.924v-359.848c99.368 0 179.924 80.557 179.924 179.924z" fill="#ffc024"/></g></g></g></g></g></g></g></g></g></g></g></g></g></g></g></g></g><g><path d="m159.464 286.039-3.057-1.039c46.029 100 153.157 100 199.186 0l-3.057 1.039c-63.382 21.545-129.69 21.545-193.072 0z" fill="#7f6866"/><path d="m355.59 285c-23.01 50-61.3 75-99.59 75v-57.798c32.42 0 64.84-5.394 96.54-16.163z" fill="#634c4c"/></g><g><circle cx="193.811" cy="185" fill="#7f6866" r="28.644"/><circle cx="318.189" cy="185" fill="#634c4c" r="28.644"/></g></g><path d="m301.93 298.58v49.86c0 25.37-20.56 45.94-45.93 45.94s-45.93-20.57-45.93-45.94v-49.86c30.52 4.82 61.34 4.82 91.86 0z" fill="#ff6643"/><path d="m301.93 298.58v49.86c0 25.37-20.56 45.94-45.93 45.94v-92.18c15.34 0 30.67-1.21 45.93-3.62z" fill="#ff3b3b"/></g></svg>