<svg id="Layer_1" enable-background="new 0 0 512 512" height="512" viewBox="0 0 512 512" width="512" xmlns="http://www.w3.org/2000/svg"><g><g><g><g id="XMLID_1513_"><g id="XMLID_1514_"><g id="XMLID_1515_"><g id="XMLID_1516_"><g id="XMLID_1517_"><g id="XMLID_1518_"><g id="XMLID_1519_"><g id="XMLID_1520_"><g id="XMLID_1521_"><g id="XMLID_1522_"><g id="XMLID_1523_"><g id="XMLID_1524_"><g id="XMLID_1525_"><g id="XMLID_1526_"><g id="XMLID_1527_"><circle cx="256" cy="256" fill="#4f4359" r="256"/></g></g></g></g></g></g></g></g></g></g></g></g></g></g></g></g></g><path d="m511.98 257.604-125.738-125.737-254.376 254.376 125.737 125.737c140.11-.861 253.515-114.266 254.377-254.376z" fill="#372a44"/><g><g><g><g id="XMLID_1497_"><g id="XMLID_1498_"><g id="XMLID_1499_"><g id="XMLID_1500_"><g id="XMLID_1501_"><g id="XMLID_1502_"><g id="XMLID_1503_"><g id="XMLID_1504_"><g id="XMLID_1505_"><g id="XMLID_1506_"><g id="XMLID_1507_"><g id="XMLID_1508_"><g id="XMLID_1509_"><g id="XMLID_1510_"><g id="XMLID_1511_"><circle cx="255.999" cy="256" fill="#fed940" r="179.923"/></g></g></g></g></g></g></g></g></g></g></g></g></g></g></g></g></g><g><g><g id="XMLID_1399_"><g id="XMLID_1400_"><g id="XMLID_1401_"><g id="XMLID_1402_"><g id="XMLID_1403_"><g id="XMLID_1404_"><g id="XMLID_1405_"><g id="XMLID_1406_"><g id="XMLID_1422_"><g id="XMLID_1484_"><g id="XMLID_1485_"><g id="XMLID_1486_"><g id="XMLID_1487_"><g id="XMLID_1488_"><g><path d="m435.923 256c0 99.367-80.557 179.924-179.924 179.924v-359.848c99.368 0 179.924 80.557 179.924 179.924z" fill="#ffc024"/></g></g></g></g></g></g></g></g></g></g></g></g></g></g></g></g></g><g><path d="m190.778 128.009 14.839 27.585 30.821 5.588-21.65 22.637 4.209 31.039-28.219-13.595-28.219 13.595 4.21-31.039-21.65-22.637 30.821-5.588z" fill="#fff6d2"/><path d="m321.222 128.009 14.838 27.585 30.821 5.588-21.65 22.637 4.21 31.039-28.219-13.595-28.219 13.595 4.209-31.039-21.65-22.637 30.821-5.588z" fill="#ffeda1"/></g><path d="m362.39 250c0 12.61-1.73 24.75-4.96 36.17-3.42 12.17-8.54 23.51-15.03 33.66-3.36 5.27-7.1 10.21-11.17 14.79-19.25 21.66-45.85 35.05-75.23 35.05-35.59 0-67.09-19.65-86.4-49.84-6.49-10.15-11.61-21.49-15.03-33.66-3.23-11.42-4.96-23.56-4.96-36.17z" fill="#7f6866"/><path d="m362.39 250c0 12.61-1.73 24.75-4.96 36.17-3.42 12.17-8.54 23.51-15.03 33.66-3.36 5.27-7.1 10.21-11.17 14.79-19.25 21.66-45.85 35.05-75.23 35.05v-119.67z" fill="#634c4c"/><path d="m362.39 250c0 12.61-1.73 24.75-4.96 36.17h-202.86c-3.23-11.42-4.96-23.56-4.96-36.17z" fill="#fff"/><path d="m362.39 250c0 12.61-1.73 24.75-4.96 36.17h-101.43v-36.17z" fill="#efe8e6"/></g></g></svg>