<svg id="Layer_1" enable-background="new 0 0 512 512" height="512" viewBox="0 0 512 512" width="512" xmlns="http://www.w3.org/2000/svg"><g><g><g><g id="XMLID_2128_"><g id="XMLID_2129_"><g id="XMLID_2130_"><g id="XMLID_2131_"><g id="XMLID_2132_"><g id="XMLID_2133_"><g id="XMLID_2134_"><g id="XMLID_2135_"><g id="XMLID_2136_"><g id="XMLID_2137_"><g id="XMLID_2138_"><g id="XMLID_2139_"><g id="XMLID_2140_"><g id="XMLID_2141_"><g id="XMLID_2142_"><circle cx="256" cy="256" fill="#4f4359" r="256"/></g></g></g></g></g></g></g></g></g></g></g></g></g></g></g></g></g><path d="m511.98 257.604-125.738-125.737-254.376 254.376 125.737 125.737c140.11-.862 253.515-114.266 254.377-254.376z" fill="#372a44"/><g><g><g><g id="XMLID_2030_"><g id="XMLID_2031_"><g id="XMLID_2032_"><g id="XMLID_2033_"><g id="XMLID_2034_"><g id="XMLID_2035_"><g id="XMLID_2051_"><g id="XMLID_2119_"><g id="XMLID_2120_"><g id="XMLID_2121_"><g id="XMLID_2122_"><g id="XMLID_2123_"><g id="XMLID_2124_"><g id="XMLID_2125_"><g id="XMLID_2126_"><circle cx="255.999" cy="256" fill="#fed940" r="179.923"/></g></g></g></g></g></g></g></g></g></g></g></g></g></g></g></g></g><circle cx="193.811" cy="185" fill="#7f6866" r="28.644"/><g><g><g id="XMLID_1667_"><g id="XMLID_1698_"><g id="XMLID_1712_"><g id="XMLID_1914_"><g id="XMLID_1915_"><g id="XMLID_1916_"><g id="XMLID_1919_"><g id="XMLID_1920_"><g id="XMLID_1921_"><g id="XMLID_1922_"><g id="XMLID_1923_"><g id="XMLID_1924_"><g id="XMLID_1925_"><g id="XMLID_1969_"><g><path d="m435.923 256c0 99.367-80.557 179.924-179.924 179.924v-359.848c99.368 0 179.924 80.557 179.924 179.924z" fill="#ffc024"/></g></g></g></g></g></g></g></g></g></g></g></g></g></g></g></g></g><path d="m361.93 261.22c-.71 8.62-2.24 16.96-4.5 24.95-3.42 12.17-8.54 23.51-15.03 33.66-3.36 5.27-7.1 10.21-11.17 14.79-19.25 21.66-45.85 35.05-75.23 35.05-35.59 0-67.09-19.65-86.4-49.84-6.49-10.15-11.61-21.49-15.03-33.66-2.26-7.99-3.79-16.33-4.5-24.95z" fill="#7f6866"/><path d="m361.93 261.22c-.71 8.62-2.24 16.96-4.5 24.95-3.42 12.17-8.54 23.51-15.03 33.66-3.36 5.27-7.1 10.21-11.17 14.79-19.25 21.66-45.85 35.05-75.23 35.05v-108.45z" fill="#634c4c"/><g><path d="m373.763 205.385h-30c0-10.354-8.424-18.777-18.778-18.777s-18.777 8.423-18.777 18.777h-30c0-26.896 21.882-48.777 48.777-48.777 26.896-.001 48.778 21.881 48.778 48.777z" fill="#634c4c"/></g></g></g></svg>