<svg id="Layer_1" enable-background="new 0 0 512 512" height="512" viewBox="0 0 512 512" width="512" xmlns="http://www.w3.org/2000/svg"><g><g><g><g id="XMLID_2172_"><g id="XMLID_2173_"><g id="XMLID_2174_"><g id="XMLID_2175_"><g id="XMLID_2176_"><g id="XMLID_2177_"><g id="XMLID_2178_"><g id="XMLID_2179_"><g id="XMLID_2180_"><g id="XMLID_2196_"><g id="XMLID_2197_"><g id="XMLID_2198_"><g id="XMLID_2199_"><g id="XMLID_2200_"><g id="XMLID_2201_"><circle cx="256" cy="256" fill="#4f4359" r="256"/></g></g></g></g></g></g></g></g></g></g></g></g></g></g></g></g></g><path d="m511.98 257.604-125.738-125.737-254.376 254.376 125.737 125.737c140.11-.862 253.515-114.266 254.377-254.376z" fill="#372a44"/><g><g><g><g id="XMLID_2156_"><g id="XMLID_2157_"><g id="XMLID_2158_"><g id="XMLID_2159_"><g id="XMLID_2160_"><g id="XMLID_2161_"><g id="XMLID_2162_"><g id="XMLID_2163_"><g id="XMLID_2164_"><g id="XMLID_2165_"><g id="XMLID_2166_"><g id="XMLID_2167_"><g id="XMLID_2168_"><g id="XMLID_2169_"><g id="XMLID_2170_"><circle cx="255.999" cy="256" fill="#fed940" r="179.923"/></g></g></g></g></g></g></g></g></g></g></g></g></g></g></g></g></g><g><g><g id="XMLID_1975_"><g id="XMLID_1976_"><g id="XMLID_1977_"><g id="XMLID_1978_"><g id="XMLID_1979_"><g id="XMLID_1980_"><g id="XMLID_2018_"><g id="XMLID_2023_"><g id="XMLID_2127_"><g id="XMLID_2143_"><g id="XMLID_2144_"><g id="XMLID_2145_"><g id="XMLID_2146_"><g id="XMLID_2147_"><g><path d="m435.923 256c0 99.367-80.557 179.924-179.924 179.924v-359.848c99.368 0 179.924 80.557 179.924 179.924z" fill="#ffc024"/></g></g></g></g></g></g></g></g></g></g></g></g></g></g></g></g></g><circle cx="256" cy="319.73" fill="#7f6866" r="63.73"/><path d="m205.61 190.91v237.85c-17.63-5.13-34.14-12.89-49.08-22.82v-215.03z" fill="#4bccf9"/><path d="m319.73 319.73c0 35.198-28.532 63.73-63.73 63.73v-127.46c35.198 0 63.73 28.532 63.73 63.73z" fill="#634c4c"/><path d="m355.47 190.91v215.03c-14.94 9.93-31.45 17.69-49.08 22.82v-237.85z" fill="#2f9de0"/></g><g><g><path d="m135.581 169h90.974v30h-90.974z" fill="#7f6866"/></g><g><path d="m285.446 169h90.974v30h-90.974z" fill="#634c4c"/></g></g></g></svg>