<svg id="Layer_1" enable-background="new 0 0 512 512" height="512" viewBox="0 0 512 512" width="512" xmlns="http://www.w3.org/2000/svg"><g><g><g><g id="XMLID_2313_"><g id="XMLID_2314_"><g id="XMLID_2315_"><g id="XMLID_2316_"><g id="XMLID_2317_"><g id="XMLID_2318_"><g id="XMLID_2319_"><g id="XMLID_2320_"><g id="XMLID_2321_"><g id="XMLID_2322_"><g id="XMLID_2323_"><g id="XMLID_2324_"><g id="XMLID_2325_"><g id="XMLID_2326_"><g id="XMLID_2327_"><circle cx="256" cy="256" fill="#4f4359" r="256"/></g></g></g></g></g></g></g></g></g></g></g></g></g></g></g></g></g><path d="m50.493 267.669 99.973 99.973-18.6 18.6 125.737 125.738c140.11-.861 253.514-114.266 254.376-254.375l-125.737-125.738-155.116 165.212-92.888-91.681-51.736-8.646z" fill="#372a44"/><g><g><g><g id="XMLID_2291_"><g id="XMLID_2292_"><g id="XMLID_2293_"><g id="XMLID_2294_"><g id="XMLID_2295_"><g id="XMLID_2302_"><g id="XMLID_2303_"><g id="XMLID_2304_"><g id="XMLID_2305_"><g id="XMLID_2306_"><g id="XMLID_2307_"><g id="XMLID_2308_"><g id="XMLID_2309_"><g id="XMLID_2310_"><g id="XMLID_2311_"><circle cx="255.999" cy="256" fill="#fed940" r="179.923"/></g></g></g></g></g></g></g></g></g></g></g></g></g></g></g></g></g><g><g><g id="XMLID_2208_"><g id="XMLID_2209_"><g id="XMLID_2210_"><g id="XMLID_2211_"><g id="XMLID_2227_"><g id="XMLID_2228_"><g id="XMLID_2229_"><g id="XMLID_2230_"><g id="XMLID_2246_"><g id="XMLID_2269_"><g id="XMLID_2270_"><g id="XMLID_2271_"><g id="XMLID_2272_"><g id="XMLID_2273_"><g><path d="m435.923 256c0 99.367-80.557 179.924-179.924 179.924v-359.848c99.368 0 179.924 80.557 179.924 179.924z" fill="#ffc024"/></g></g></g></g></g></g></g></g></g></g></g></g></g></g></g></g></g><path d="m362.39 250c0 12.61-1.73 24.75-4.96 36.17-3.42 12.17-8.54 23.51-15.03 33.66-3.36 5.27-7.1 10.21-11.17 14.79-19.25 21.66-45.85 35.05-75.23 35.05-35.59 0-67.09-19.65-86.4-49.84-6.49-10.15-11.61-21.49-15.03-33.66-3.23-11.42-4.96-23.56-4.96-36.17z" fill="#7f6866"/><path d="m362.39 250c0 12.61-1.73 24.75-4.96 36.17-3.42 12.17-8.54 23.51-15.03 33.66-3.36 5.27-7.1 10.21-11.17 14.79-19.25 21.66-45.85 35.05-75.23 35.05v-119.67z" fill="#634c4c"/><path d="m328.61 337.45c-18.99 19.99-44.53 32.22-72.61 32.22s-53.61-12.23-72.61-32.22c15.39-12.61 42.16-20.95 72.61-20.95s57.22 8.34 72.61 20.95z" fill="#ff6643"/><path d="m328.61 337.45c-18.99 19.99-44.53 32.22-72.61 32.22v-53.17c30.45 0 57.22 8.34 72.61 20.95z" fill="#ff3b3b"/><path d="m362.39 250c0 12.61-1.73 24.75-4.96 36.17h-202.86c-3.23-11.42-4.96-23.56-4.96-36.17z" fill="#fff"/><path d="m362.39 250c0 12.61-1.73 24.75-4.96 36.17h-101.43v-36.17z" fill="#efe8e6"/><g><g><path d="m235.793 205.385h-30c0-10.354-8.424-18.777-18.777-18.777-10.354 0-18.778 8.423-18.778 18.777h-30c0-26.896 21.882-48.777 48.778-48.777 26.895-.001 48.777 21.881 48.777 48.777z" fill="#7f6866"/></g><g><path d="m373.763 205.385h-30c0-10.354-8.424-18.777-18.778-18.777s-18.777 8.423-18.777 18.777h-30c0-26.896 21.882-48.777 48.777-48.777 26.896-.001 48.778 21.881 48.778 48.777z" fill="#634c4c"/></g></g></g><path d="m138.237 205.398-51.736-8.646c-21.028-3.514-42.134 9.258-48.545 29.375-6.435 20.195 4.095 41.007 24.177 47.785 20.006 6.752 42.798-2.687 52.423-21.711z" fill="#4bccf9"/><path d="m373.763 205.398 51.736-8.646c21.028-3.514 42.134 9.258 48.545 29.375 6.435 20.195-4.095 41.007-24.177 47.785-20.006 6.752-42.798-2.687-52.423-21.711z" fill="#2f9de0"/></g></svg>