<svg id="Layer_1" enable-background="new 0 0 512 512" height="512" viewBox="0 0 512 512" width="512" xmlns="http://www.w3.org/2000/svg"><g><g><g><g id="XMLID_2329_"><g id="XMLID_2330_"><g id="XMLID_2331_"><g id="XMLID_2332_"><g id="XMLID_2333_"><g id="XMLID_2334_"><g id="XMLID_2335_"><g id="XMLID_2336_"><g id="XMLID_2337_"><g id="XMLID_2338_"><g id="XMLID_2339_"><g id="XMLID_2340_"><g id="XMLID_2341_"><g id="XMLID_2342_"><g id="XMLID_2343_"><circle cx="256" cy="256" fill="#4f4359" r="256"/></g></g></g></g></g></g></g></g></g></g></g></g></g></g></g></g></g><path d="m512 256c0-33.238-6.338-64.996-17.865-94.134l-51.794-51.985s-31.451 3.764-37.072 7.185l-26.678-27.086s-74.248 5.948-72.995 28.738l-93.399-13.581-17.945-18.019-123.272 134.466 64.221 63.639c2.451 3.321 5.395 6.262 8.724 8.724 2.451 3.321 5.395 6.261 8.724 8.724 2.451 3.321 5.395 6.262 8.724 8.724 2.451 3.321 5.395 6.262 8.724 8.724 2.451 3.321 5.395 6.261 8.724 8.724 2.451 3.321 5.395 6.261 8.724 8.724 1.158 1.57 2.435 3.047 3.803 4.436l-59.48 59.48 110.133 110.133c4.636.25 9.302.385 14.001.385 141.383-.001 255.998-114.616 255.998-256.001z" fill="#372a44"/><g><path d="m167.405 75.183c-18.767-1.032-35.286 10.63-41.238 27.503-6.253-4.604-13.867-7.507-22.199-7.966-22.791-1.253-42.282 16.206-43.535 38.997-.58 10.548 2.854 20.385 8.965 28.039-6.913 6.938-11.405 16.339-11.985 26.887-1.253 22.791 16.206 42.282 38.997 43.535 22.79 1.253 108.738-90.67 109.991-113.46 1.254-22.791-16.205-42.282-38.996-43.535z" fill="#99db72"/><path d="m344.593 75.183c18.767-1.032 35.286 10.63 41.238 27.503 6.253-4.604 13.867-7.507 22.199-7.966 22.79-1.253 42.282 16.206 43.535 38.997.58 10.548-2.854 20.385-8.965 28.039 6.913 6.938 11.405 16.339 11.985 26.887 1.253 22.791-16.206 42.282-38.997 43.535-22.79 1.253-108.738-90.67-109.991-113.46s16.206-42.282 38.996-43.535z" fill="#81bf58"/></g><g><g id="XMLID_3621_"><g id="XMLID_3622_"><g id="XMLID_3623_"><g id="XMLID_3624_"><g id="XMLID_3625_"><g id="XMLID_3626_"><g id="XMLID_3627_"><g id="XMLID_3628_"><g id="XMLID_3629_"><g id="XMLID_3630_"><g id="XMLID_3631_"><g id="XMLID_3632_"><g id="XMLID_3633_"><g id="XMLID_3634_"><circle id="XMLID_3635_" cx="255.999" cy="271.239" fill="#fff" r="179.923"/></g></g></g></g></g></g></g></g></g></g></g></g></g></g></g><g><g id="XMLID_3592_"><g id="XMLID_3593_"><g id="XMLID_3594_"><g id="XMLID_3595_"><g id="XMLID_3596_"><g id="XMLID_3597_"><g id="XMLID_3598_"><g id="XMLID_3599_"><g id="XMLID_3600_"><g id="XMLID_3601_"><g id="XMLID_3602_"><g id="XMLID_3603_"><g id="XMLID_3604_"><g id="XMLID_3605_"><path d="m435.923 271.239c0 99.367-80.557 179.924-179.924 179.924v-359.848c99.368 0 179.924 80.557 179.924 179.924z" fill="#efe8e6"/></g></g></g></g></g></g></g></g></g></g></g></g></g></g></g><g><ellipse cx="181.992" cy="211.841" fill="#4bccf9" rx="49.874" ry="49.874" transform="matrix(.225 -.974 .974 .225 -65.357 341.517)"/><ellipse cx="330.006" cy="211.841" fill="#2f9de0" rx="49.874" ry="49.874" transform="matrix(.906 -.424 .424 .906 -58.666 159.739)"/><g><circle cx="181.992" cy="211.841" fill="#7f6866" r="19.16"/><circle cx="330.006" cy="211.841" fill="#634c4c" r="19.16"/></g></g><ellipse cx="255.999" cy="312.607" fill="#ff6643" rx="43.749" ry="34.333"/><g><path d="m255.999 413.904c-34.571 0-67.781-13.772-96.975-40.031-7.666-6.896-7.741-18.897-.161-25.888 6.61-6.096 16.8-6.228 23.486-.216 22.714 20.426 47.928 31.134 73.651 31.134 25.722 0 50.937-10.709 73.651-31.134 6.686-6.012 16.875-5.88 23.485.215 7.58 6.99 7.506 18.993-.16 25.888-29.196 26.26-62.406 40.032-96.977 40.032z" fill="#ff6643"/></g><path d="m299.75 312.61c0 18.96-19.59 34.33-43.75 34.33v-68.67c24.16 0 43.75 15.37 43.75 34.34z" fill="#ff3b3b"/><g><path d="m358.78 360.85c0 4.78-1.94 9.55-5.8 13.02-29.2 26.26-62.41 40.03-96.98 40.03v-35c25.72 0 50.94-10.71 73.65-31.13 6.69-6.01 16.88-5.88 23.49.21 3.76 3.47 5.64 8.17 5.64 12.87z" fill="#ff3b3b"/></g></g></svg>