<svg id="Layer_1" enable-background="new 0 0 512 512" height="512" viewBox="0 0 512 512" width="512" xmlns="http://www.w3.org/2000/svg"><g><g><g><g id="XMLID_2373_"><g id="XMLID_2374_"><g id="XMLID_2375_"><g id="XMLID_2376_"><g id="XMLID_2377_"><g id="XMLID_2378_"><g id="XMLID_2394_"><g id="XMLID_2395_"><g id="XMLID_2396_"><g id="XMLID_2397_"><g id="XMLID_2398_"><g id="XMLID_2399_"><g id="XMLID_2400_"><g id="XMLID_2401_"><g id="XMLID_2402_"><circle cx="256" cy="256" fill="#4f4359" r="256"/></g></g></g></g></g></g></g></g></g></g></g></g></g></g></g></g></g><path d="m511.98 257.604-125.738-125.737-254.376 254.376 125.737 125.737c140.11-.862 253.515-114.266 254.377-254.376z" fill="#372a44"/><g><g><g><g id="XMLID_2357_"><g id="XMLID_2358_"><g id="XMLID_2359_"><g id="XMLID_2360_"><g id="XMLID_2361_"><g id="XMLID_2362_"><g id="XMLID_2363_"><g id="XMLID_2364_"><g id="XMLID_2365_"><g id="XMLID_2366_"><g id="XMLID_2367_"><g id="XMLID_2368_"><g id="XMLID_2369_"><g id="XMLID_2370_"><g id="XMLID_2371_"><circle cx="255.999" cy="256" fill="#fed940" r="179.923"/></g></g></g></g></g></g></g></g></g></g></g></g></g></g></g></g></g><g><g><g id="XMLID_2284_"><g id="XMLID_2285_"><g id="XMLID_2286_"><g id="XMLID_2287_"><g id="XMLID_2288_"><g id="XMLID_2289_"><g id="XMLID_2290_"><g id="XMLID_2312_"><g id="XMLID_2328_"><g id="XMLID_2344_"><g id="XMLID_2345_"><g id="XMLID_2346_"><g id="XMLID_2347_"><g id="XMLID_2348_"><g><path d="m435.923 256c0 99.367-80.557 179.924-179.924 179.924v-359.848c99.368 0 179.924 80.557 179.924 179.924z" fill="#ffc024"/></g></g></g></g></g></g></g></g></g></g></g></g></g></g></g></g></g><circle cx="256" cy="319.73" fill="#7f6866" r="48.73"/><path d="m304.73 319.73c0 26.914-21.816 48.73-48.73 48.73v-97.46c26.914 0 48.73 21.816 48.73 48.73z" fill="#634c4c"/><g><path d="m224.937 169.109-21.214-21.213-21.557 21.557-21.557-21.557-21.214 21.213 21.558 21.558-21.558 21.557 21.214 21.213 21.557-21.557 21.557 21.557 21.214-21.213-21.558-21.557z" fill="#7f6866"/><path d="m372.603 169.109-21.213-21.213-21.557 21.557-21.558-21.557-21.213 21.213 21.558 21.558-21.558 21.557 21.213 21.213 21.558-21.557 21.557 21.557 21.213-21.213-21.557-21.557z" fill="#634c4c"/></g></g></g></svg>