<svg id="Layer_1" enable-background="new 0 0 512 512" height="512" viewBox="0 0 512 512" width="512" xmlns="http://www.w3.org/2000/svg"><g><g><g><g id="XMLID_2404_"><g id="XMLID_2405_"><g id="XMLID_2406_"><g id="XMLID_2407_"><g id="XMLID_2408_"><g id="XMLID_2409_"><g id="XMLID_2410_"><g id="XMLID_2411_"><g id="XMLID_2412_"><g id="XMLID_2413_"><g id="XMLID_2414_"><g id="XMLID_2415_"><g id="XMLID_2416_"><g id="XMLID_2417_"><g id="XMLID_2418_"><circle cx="256" cy="256" fill="#4f4359" r="256"/></g></g></g></g></g></g></g></g></g></g></g></g></g></g></g></g></g><path d="m512 256c0-13.751-1.098-27.243-3.185-40.406l-97.275-97.275-209.434 306.075 85.806 85.628c126.323-15.708 224.088-123.444 224.088-254.022z" fill="#372a44"/><g><path d="m419.39 127.167c-14.996-17.739-63.736-72.167-162.39-72.167s-147.394 54.428-162.39 72.167c-24.918 29.476-41.36 87.511-5.424 148.133 28.422 47.946 92.807 128.068 111.114 147.292 18.306 19.223 38.393 22.408 56.7 22.408s0 0 0 0c18.307 0 38.393-3.185 56.7-22.408s82.692-99.346 111.114-147.292c35.937-60.621 19.494-118.657-5.424-148.133z" fill="#ceeae7"/><path d="m424.81 275.3c-28.42 47.95-92.8 128.07-111.11 147.29-9.16 9.61-18.75 15.22-28.35 18.42-9.6 3.19-19.19 3.99-28.35 3.99-.33 0-.67 0-1-.01v-389.98c.33-.01.67-.01 1-.01 98.65 0 147.39 54.43 162.39 72.17 24.92 29.47 41.36 87.51 5.42 148.13z" fill="#aed6d0"/><g><path d="m193.78 329.16-2.002-.66c30.143 63.555 100.3 63.555 130.443 0l-2.002.66c-41.507 13.693-84.931 13.693-126.439 0z" fill="#7f6866"/><path d="m322.22 328.5c-15.069 31.778-40.144 47.667-65.22 47.667v-36.734c21.231 0 42.463-3.428 63.222-10.273z" fill="#634c4c"/></g><g><g><path d="m209.659 171.443c22.287 23.971 16.788 65.179 4.873 76.392-11.915 11.214-53.549 13.558-75.836-10.413s-23.94-65.14-8.388-78.916c15.553-13.776 57.064-11.033 79.351 12.937z" fill="#7f6866"/></g><g><path d="m304.341 171.443c-22.287 23.971-16.788 65.179-4.873 76.392 11.915 11.214 53.549 13.558 75.836-10.413s23.94-65.14 8.388-78.916c-15.553-13.776-57.064-11.033-79.351 12.937z" fill="#634c4c"/></g></g></g></g></svg>