<svg id="Layer_1" enable-background="new 0 0 512 512" height="512" viewBox="0 0 512 512" width="512" xmlns="http://www.w3.org/2000/svg"><g><g><g><g id="XMLID_2671_"><g id="XMLID_2672_"><g id="XMLID_2673_"><g id="XMLID_2674_"><g id="XMLID_2675_"><g id="XMLID_2676_"><g id="XMLID_2677_"><g id="XMLID_2678_"><g id="XMLID_2679_"><g id="XMLID_2686_"><g id="XMLID_2687_"><g id="XMLID_2688_"><g id="XMLID_2689_"><g id="XMLID_2690_"><g id="XMLID_2691_"><circle cx="256" cy="256" fill="#4f4359" r="256"/></g></g></g></g></g></g></g></g></g></g></g></g></g></g></g></g></g><path d="m511.98 257.604-125.738-125.737-254.376 254.376 125.737 125.737c140.11-.862 253.515-114.266 254.377-254.376z" fill="#372a44"/><g><g><g><g id="XMLID_2501_"><g id="XMLID_2502_"><g id="XMLID_2503_"><g id="XMLID_2504_"><g id="XMLID_2505_"><g id="XMLID_2511_"><g id="XMLID_2572_"><g id="XMLID_2573_"><g id="XMLID_2574_"><g id="XMLID_2575_"><g id="XMLID_2648_"><g id="XMLID_2666_"><g id="XMLID_2667_"><g id="XMLID_2668_"><g id="XMLID_2669_"><circle cx="255.999" cy="256" fill="#fed940" r="179.923"/></g></g></g></g></g></g></g></g></g></g></g></g></g></g></g></g></g><g><g><g id="XMLID_2352_"><g id="XMLID_2353_"><g id="XMLID_2354_"><g id="XMLID_2355_"><g id="XMLID_2356_"><g id="XMLID_2372_"><g id="XMLID_2403_"><g id="XMLID_2419_"><g id="XMLID_2420_"><g id="XMLID_2421_"><g id="XMLID_2422_"><g id="XMLID_2453_"><g id="XMLID_2468_"><g id="XMLID_2492_"><g><path d="m435.923 256c0 99.367-80.557 179.924-179.924 179.924v-359.848c99.368 0 179.924 80.557 179.924 179.924z" fill="#ffc024"/></g></g></g></g></g></g></g></g></g></g></g></g></g></g></g></g></g><path d="m362.39 268.667c0 12.61-1.73 24.75-4.96 36.17-3.42 12.17-8.54 23.51-15.03 33.66-3.36 5.27-7.1 10.21-11.17 14.79-19.25 21.66-45.85 35.05-75.23 35.05-35.59 0-67.09-19.65-86.4-49.84-6.49-10.15-11.61-21.49-15.03-33.66-3.23-11.42-4.96-23.56-4.96-36.17z" fill="#7f6866"/><path d="m362.39 268.667c0 12.61-1.73 24.75-4.96 36.17-3.42 12.17-8.54 23.51-15.03 33.66-3.36 5.27-7.1 10.21-11.17 14.79-19.25 21.66-45.85 35.05-75.23 35.05v-119.67z" fill="#634c4c"/><path d="m328.61 356.117c-18.99 19.99-44.53 32.22-72.61 32.22s-53.61-12.23-72.61-32.22c15.39-12.61 42.16-20.95 72.61-20.95s57.22 8.34 72.61 20.95z" fill="#ff6643"/><path d="m328.61 356.117c-18.99 19.99-44.53 32.22-72.61 32.22v-53.17c30.45 0 57.22 8.34 72.61 20.95z" fill="#ff3b3b"/><path d="m362.39 268.667c0 12.61-1.73 24.75-4.96 36.17h-202.86c-3.23-11.42-4.96-23.56-4.96-36.17z" fill="#fff"/><path d="m362.39 268.667c0 12.61-1.73 24.75-4.96 36.17h-101.43v-36.17z" fill="#efe8e6"/><g><g><path d="m165.371 236.621-17.098-24.652 34.562-23.969-34.562-23.969 17.098-24.652 70.104 48.621z" fill="#7f6866"/></g><g><g><path d="m346.628 236.621 17.097-24.652-34.561-23.969 34.561-23.969-17.097-24.652-70.105 48.621z" fill="#634c4c"/></g></g></g></g></g></svg>