<svg id="Layer_1" enable-background="new 0 0 512 512" height="512" viewBox="0 0 512 512" width="512" xmlns="http://www.w3.org/2000/svg"><g><g><g><g id="XMLID_2854_"><g id="XMLID_2855_"><g id="XMLID_2856_"><g id="XMLID_2857_"><g id="XMLID_2858_"><g id="XMLID_2859_"><g id="XMLID_2860_"><g id="XMLID_2861_"><g id="XMLID_2862_"><g id="XMLID_2863_"><g id="XMLID_2864_"><g id="XMLID_2865_"><g id="XMLID_2866_"><g id="XMLID_2867_"><g id="XMLID_2868_"><circle cx="256" cy="256" fill="#4f4359" r="256"/></g></g></g></g></g></g></g></g></g></g></g></g></g></g></g></g></g><path d="m511.98 257.604-125.738-125.737-254.376 254.376 125.737 125.737c140.11-.862 253.515-114.266 254.377-254.376z" fill="#372a44"/><g><g><g><g id="XMLID_2838_"><g id="XMLID_2839_"><g id="XMLID_2840_"><g id="XMLID_2841_"><g id="XMLID_2842_"><g id="XMLID_2843_"><g id="XMLID_2844_"><g id="XMLID_2845_"><g id="XMLID_2846_"><g id="XMLID_2847_"><g id="XMLID_2848_"><g id="XMLID_2849_"><g id="XMLID_2850_"><g id="XMLID_2851_"><g id="XMLID_2852_"><circle cx="255.999" cy="256" fill="#fed940" r="179.923"/></g></g></g></g></g></g></g></g></g></g></g></g></g></g></g></g></g><g><g><g id="XMLID_2770_"><g id="XMLID_2771_"><g id="XMLID_2772_"><g id="XMLID_2773_"><g id="XMLID_2774_"><g id="XMLID_2775_"><g id="XMLID_2807_"><g id="XMLID_2823_"><g id="XMLID_2824_"><g id="XMLID_2825_"><g id="XMLID_2826_"><g id="XMLID_2827_"><g id="XMLID_2828_"><g id="XMLID_2829_"><g><path d="m435.923 256c0 99.367-80.557 179.924-179.924 179.924v-359.848c99.368 0 179.924 80.557 179.924 179.924z" fill="#ffc024"/></g></g></g></g></g></g></g></g></g></g></g></g></g></g></g></g></g><g><path d="m216.579 174.809c9.908 14.589 9.225 34.556-2.874 48.52-14.423 16.647-39.601 18.449-56.247 4.026-8.492-7.357-13.128-17.527-13.706-27.938z" fill="#7f6866"/><path d="m295.419 174.809c-9.908 14.589-9.225 34.556 2.874 48.52 14.423 16.647 39.601 18.449 56.247 4.026 8.492-7.357 13.128-17.527 13.706-27.938z" fill="#634c4c"/></g><path d="m324.725 297.022c-42.661-24.053-94.792-24.053-137.452 0-14.143 7.974-19.519 25.659-12.206 40.155 8.207 16.27 28.79 21.708 43.963 11.614 22.395-14.899 51.545-14.899 73.94 0 15.172 10.094 35.755 4.656 43.963-11.614 7.311-14.497 1.935-32.181-12.208-40.155z" fill="#ff6643"/><path d="m340.19 323.51c0 4.61-1.05 9.29-3.26 13.67-5.4 10.69-16.13 16.7-27.17 16.7-5.75 0-11.59-1.63-16.79-5.09-11.2-7.45-24.09-11.17-36.97-11.17v-58.64c23.69 0 47.39 6.02 68.72 18.04h.01c9.86 5.57 15.46 15.86 15.46 26.49z" fill="#ff3b3b"/><path d="m87.227 193.506-34.963 47.553c-14.211 19.328-12.11 47.008 4.833 63.665 17.007 16.72 43.254 16.72 60.261 0 16.942-16.657 19.044-44.336 4.833-63.665z" fill="#4bccf9"/></g></g></svg>