<svg id="Layer_1" enable-background="new 0 0 512 512" height="512" viewBox="0 0 512 512" width="512" xmlns="http://www.w3.org/2000/svg"><g><g><g><g id="XMLID_3132_"><g id="XMLID_3133_"><g id="XMLID_3134_"><g id="XMLID_3135_"><g id="XMLID_3136_"><g id="XMLID_3137_"><g id="XMLID_3138_"><g id="XMLID_3139_"><g id="XMLID_3140_"><g id="XMLID_3141_"><g id="XMLID_3142_"><g id="XMLID_3143_"><g id="XMLID_3144_"><g id="XMLID_3145_"><g id="XMLID_3146_"><circle cx="256" cy="256" fill="#4f4359" r="256"/></g></g></g></g></g></g></g></g></g></g></g></g></g></g></g></g></g><path d="m511.98 257.604-125.738-125.737-254.376 254.376 125.737 125.737c140.11-.862 253.515-114.266 254.377-254.376z" fill="#372a44"/><g><g><g><g id="XMLID_3101_"><g id="XMLID_3102_"><g id="XMLID_3103_"><g id="XMLID_3104_"><g id="XMLID_3105_"><g id="XMLID_3106_"><g id="XMLID_3107_"><g id="XMLID_3108_"><g id="XMLID_3109_"><g id="XMLID_3110_"><g id="XMLID_3111_"><g id="XMLID_3127_"><g id="XMLID_3128_"><g id="XMLID_3129_"><g id="XMLID_3130_"><circle cx="255.999" cy="256" fill="#99db72" r="179.923"/></g></g></g></g></g></g></g></g></g></g></g></g></g></g></g></g></g><g><g><g id="XMLID_2891_"><g id="XMLID_2892_"><g id="XMLID_2893_"><g id="XMLID_2894_"><g id="XMLID_2895_"><g id="XMLID_2896_"><g id="XMLID_2897_"><g id="XMLID_2898_"><g id="XMLID_3021_"><g id="XMLID_3073_"><g id="XMLID_3074_"><g id="XMLID_3075_"><g id="XMLID_3076_"><g id="XMLID_3077_"><g><path d="m435.923 256c0 99.367-80.557 179.924-179.924 179.924v-359.848c99.368 0 179.924 80.557 179.924 179.924z" fill="#81bf58"/></g></g></g></g></g></g></g></g></g></g></g></g></g></g></g></g></g><g><path d="m216.579 174.809c9.908 14.589 9.224 34.556-2.874 48.52-14.423 16.647-39.601 18.449-56.247 4.026-8.492-7.357-13.128-17.527-13.706-27.938z" fill="#7f6866"/><path d="m295.419 174.809c-9.908 14.589-9.225 34.556 2.874 48.52 14.423 16.647 39.601 18.449 56.247 4.026 8.492-7.357 13.128-17.527 13.706-27.938z" fill="#634c4c"/></g><path d="m332.5 323.319c0-9.413 4.499-17.796 12.345-22.997l-16.578-25.004c-10.428 6.914-18.117 16.865-22.268 28.258-16.1-7.598-33.854-11.53-51.799-11.244-16.733.252-33.199 4.139-48.212 11.211-4.154-11.38-11.839-21.317-22.257-28.225l-16.577 25.004c7.846 5.201 12.345 13.584 12.346 22.997 0 9.414-4.5 17.797-12.346 23l16.578 25.002c12.299-8.155 20.803-20.525 24.159-34.517 13.826-9.128 30.111-14.225 46.76-14.474.433-.007.862-.01 1.294-.01 17.113 0 33.944 5.109 48.171 14.526 3.363 13.975 11.863 26.328 24.15 34.475l16.578-25.002c-7.845-5.203-12.345-13.586-12.344-23z" fill="#7f6866"/><path d="m344.84 346.32-16.57 25c-12.29-8.15-20.79-20.5-24.15-34.47-14.22-9.41-31.03-14.52-48.12-14.53v-30c17.33 0 34.44 3.91 50 11.26 4.15-11.4 11.84-21.35 22.27-28.26l16.57 25c-7.84 5.2-12.34 13.59-12.34 23s4.5 17.8 12.34 23z" fill="#634c4c"/></g></g></svg>