<svg id="Layer_1" enable-background="new 0 0 512 512" height="512" viewBox="0 0 512 512" width="512" xmlns="http://www.w3.org/2000/svg"><g><g><g><g id="XMLID_3431_"><g id="XMLID_3432_"><g id="XMLID_3433_"><g id="XMLID_3434_"><g id="XMLID_3435_"><g id="XMLID_3436_"><g id="XMLID_3437_"><g id="XMLID_3438_"><g id="XMLID_3439_"><g id="XMLID_3440_"><g id="XMLID_3456_"><g id="XMLID_3457_"><g id="XMLID_3458_"><g id="XMLID_3459_"><g id="XMLID_3460_"><circle cx="256" cy="256" fill="#4f4359" r="256"/></g></g></g></g></g></g></g></g></g></g></g></g></g></g></g></g></g><path d="m511.98 257.604-125.738-125.737-254.376 254.376 125.737 125.737c140.11-.862 253.515-114.266 254.377-254.376z" fill="#372a44"/><g><g><g id="XMLID_3401_"><g id="XMLID_3402_"><g id="XMLID_3403_"><g id="XMLID_3404_"><g id="XMLID_3405_"><g id="XMLID_3406_"><g id="XMLID_3407_"><g id="XMLID_3408_"><g id="XMLID_3409_"><g id="XMLID_3410_"><g id="XMLID_3411_"><g id="XMLID_3426_"><g id="XMLID_3427_"><g id="XMLID_3428_"><g id="XMLID_3429_"><path d="m76.077 256c0-36.929 11.126-71.26 30.209-99.823 0 0 96.666-12.557 159.105-12.557 83.842 0 164.867 67.415 164.867 67.415 3.698 14.372 5.664 29.439 5.664 44.965 0 99.368-80.554 179.922-179.923 179.922-99.368 0-179.922-80.554-179.922-179.922z" fill="#fed940"/></g></g></g></g></g></g></g></g></g></g></g></g></g></g></g></g></g><g><g><g id="XMLID_3219_"><g id="XMLID_3220_"><g id="XMLID_3221_"><g id="XMLID_3222_"><g id="XMLID_3223_"><g id="XMLID_3224_"><g id="XMLID_3225_"><g id="XMLID_3312_"><g id="XMLID_3313_"><g id="XMLID_3314_"><g id="XMLID_3315_"><g id="XMLID_3316_"><g id="XMLID_3317_"><g id="XMLID_3318_"><g><path d="m435.923 256c0 99.367-80.557 179.924-179.924 179.924v-292.304c83.841 0 174.259 67.414 174.259 67.414 3.698 14.373 5.665 29.44 5.665 44.966z" fill="#ffc024"/></g></g></g></g></g></g></g></g></g></g></g></g></g></g></g></g></g><path d="m424.49 192.77-318.2-36.59c19.31-28.9 46.76-51.89 79.08-65.7 3.18-1.36 6.41-2.63 9.68-3.81l158.68 18.24c32.09 20.8 57.13 51.54 70.76 87.86z" fill="#efe8e6"/><path d="m424.49 192.77-168.49-19.37v-79.72l97.73 11.23c32.09 20.8 57.13 51.54 70.76 87.86z" fill="#e0d4d1"/><path d="m344.61 352.13-30.41 17.45c-12.64-18.67-34.01-30.95-58.2-30.95s-45.56 12.28-58.2 30.95l-30.41-17.45c18.74-29.15 51.46-48.5 88.61-48.5s69.87 19.35 88.61 48.5z" fill="#7f6866"/><path d="m344.61 352.13-30.41 17.45c-12.64-18.67-34.01-30.95-58.2-30.95v-35c37.15 0 69.87 19.35 88.61 48.5z" fill="#634c4c"/><g><path d="m216.579 215.452c9.908 14.589 9.224 34.556-2.874 48.52-14.423 16.647-39.601 18.449-56.247 4.026-8.492-7.357-13.128-17.527-13.706-27.938z" fill="#7f6866"/><path d="m295.419 215.452c-9.908 14.589-9.225 34.556 2.874 48.52 14.423 16.647 39.601 18.449 56.247 4.026 8.492-7.357 13.128-17.527 13.706-27.938z" fill="#634c4c"/></g><path d="m430.29 211.16-244.92-120.68c21.68-9.27 45.56-14.4 70.63-14.4 83.89 0 154.36 57.4 174.29 135.08z" fill="#fff"/><path d="m430.29 211.16-174.29-85.88v-49.2c83.89 0 154.36 57.4 174.29 135.08z" fill="#efe8e6"/></g></svg>