<svg id="Layer_1" enable-background="new 0 0 512 512" height="512" viewBox="0 0 512 512" width="512" xmlns="http://www.w3.org/2000/svg"><g><g><g><g id="XMLID_3215_"><g id="XMLID_3216_"><g id="XMLID_3217_"><g id="XMLID_3218_"><g id="XMLID_3226_"><g id="XMLID_3227_"><g id="XMLID_3228_"><g id="XMLID_3229_"><g id="XMLID_3230_"><g id="XMLID_3231_"><g id="XMLID_3232_"><g id="XMLID_3233_"><g id="XMLID_3234_"><g id="XMLID_3235_"><g id="XMLID_3236_"><circle cx="256" cy="256" fill="#4f4359" r="256"/></g></g></g></g></g></g></g></g></g></g></g></g></g></g></g></g></g><path d="m512 256c0-27.828-4.457-54.612-12.668-79.696l-99.911-100.228c-13.866 32.77-42.138 77.141-42.138 77.141l8.127 8.127-75.882 91.462-176.949-176.73-7.091 112.271 26.378 206.54 117.009 117.009c2.367.065 4.741.103 7.124.103 141.386.001 256.001-114.614 256.001-255.999z" fill="#372a44"/><g><path d="m172.421 135.514s-45.975-26.668-59.841-59.438c0 0-58.357 52.27-8.059 113.035z" fill="#cd6bf7"/><path d="m339.579 135.514s45.975-26.668 59.841-59.438c0 0 58.357 52.27 8.059 113.035z" fill="#a14cd8"/></g><g><g><g id="XMLID_3199_"><g id="XMLID_3200_"><g id="XMLID_3201_"><g id="XMLID_3202_"><g id="XMLID_3203_"><g id="XMLID_3204_"><g id="XMLID_3205_"><g id="XMLID_3206_"><g id="XMLID_3207_"><g id="XMLID_3208_"><g id="XMLID_3209_"><g id="XMLID_3210_"><g id="XMLID_3211_"><g id="XMLID_3212_"><g id="XMLID_3213_"><circle cx="255.999" cy="264.645" fill="#d594ff" r="179.923"/></g></g></g></g></g></g></g></g></g></g></g></g></g></g></g></g></g><g><g><g id="XMLID_3067_"><g id="XMLID_3068_"><g id="XMLID_3069_"><g id="XMLID_3070_"><g id="XMLID_3071_"><g id="XMLID_3078_"><g id="XMLID_3153_"><g id="XMLID_3154_"><g id="XMLID_3155_"><g id="XMLID_3156_"><g id="XMLID_3157_"><g id="XMLID_3158_"><g id="XMLID_3159_"><g id="XMLID_3160_"><g><path d="m435.923 264.645c0 99.367-80.557 179.924-179.924 179.924v-359.848c99.368 0 179.924 80.556 179.924 179.924z" fill="#cd6bf7"/></g></g></g></g></g></g></g></g></g></g></g></g></g></g></g></g></g><g><path d="m330.502 301.311h-35c0 21.781-17.721 39.502-39.502 39.502s-39.502-17.721-39.502-39.502h-35c0 41.08 33.421 74.502 74.502 74.502s74.502-33.421 74.502-74.502z" fill="#7f6866"/></g><g><path d="m330.5 301.313h-35c0 21.78-17.72 39.5-39.5 39.5v35c41.08 0 74.5-33.42 74.5-74.5z" fill="#634c4c"/></g><g><path d="m225.558 218.701c-4.539 17.041-20.077 29.6-38.552 29.6-22.026 0-39.875-17.849-39.875-39.875 0-11.236 4.65-21.399 12.141-28.653z" fill="#7f6866"/><path d="m364.867 208.426c0 22.026-17.849 39.875-39.875 39.875-18.475 0-34.013-12.558-38.552-29.6l66.286-38.928c7.491 7.254 12.141 17.417 12.141 28.653z" fill="#634c4c"/></g></g></svg>