<svg id="Layer_1" enable-background="new 0 0 512 512" height="512" viewBox="0 0 512 512" width="512" xmlns="http://www.w3.org/2000/svg"><g><g><g><g id="XMLID_3177_"><g id="XMLID_3178_"><g id="XMLID_3179_"><g id="XMLID_3180_"><g id="XMLID_3181_"><g id="XMLID_3182_"><g id="XMLID_3183_"><g id="XMLID_3184_"><g id="XMLID_3185_"><g id="XMLID_3186_"><g id="XMLID_3187_"><g id="XMLID_3188_"><g id="XMLID_3189_"><g id="XMLID_3190_"><g id="XMLID_3191_"><circle cx="256" cy="256" fill="#4f4359" r="256"/></g></g></g></g></g></g></g></g></g></g></g></g></g></g></g></g></g><path d="m511.98 257.604-125.738-125.737-254.376 254.376 125.737 125.737c140.11-.862 253.515-114.266 254.377-254.376z" fill="#372a44"/><g><g><g><g id="XMLID_3161_"><g id="XMLID_3162_"><g id="XMLID_3163_"><g id="XMLID_3164_"><g id="XMLID_3165_"><g id="XMLID_3166_"><g id="XMLID_3167_"><g id="XMLID_3168_"><g id="XMLID_3169_"><g id="XMLID_3170_"><g id="XMLID_3171_"><g id="XMLID_3172_"><g id="XMLID_3173_"><g id="XMLID_3174_"><g id="XMLID_3175_"><path d="m89.5 256c0-8.875-12.781-17.6-11.539-26.131 12.656-86.984 87.546-153.791 178.039-153.791s165.383 66.807 178.039 153.791c1.24 8.531-10.039 17.256-10.039 26.131 0 3.366 11.829 6.71 11.647 10.03-1.863 33.908-13.115 65.315-31.201 91.664-3.428 4.995-16.044 4.442-19.946 9.056-4.306 5.092.051 15.308-4.788 19.892-32.245 30.545-75.791 49.28-123.713 49.28-47.921 0-91.467-18.735-123.712-49.28-4.207-3.985.394-13.521-3.412-17.893-4.54-5.213-17.399-5.34-21.322-11.055-18.086-26.349-29.338-57.756-31.201-91.664-.183-3.32 13.148-6.664 13.148-10.03z" fill="#fed940"/></g></g></g></g></g></g></g></g></g></g></g></g></g></g></g></g></g><g><g><g id="XMLID_3079_"><g id="XMLID_3080_"><g id="XMLID_3096_"><g id="XMLID_3097_"><g id="XMLID_3098_"><g id="XMLID_3099_"><g id="XMLID_3100_"><g id="XMLID_3131_"><g id="XMLID_3147_"><g id="XMLID_3148_"><g id="XMLID_3149_"><g id="XMLID_3150_"><g id="XMLID_3151_"><g id="XMLID_3152_"><g><path d="m428.5 253c0 3.366 7.331 9.71 7.148 13.03-1.863 33.908-13.116 65.314-31.202 91.664-3.606 5.254-15.818 4.224-19.947 9.056s-.176 15.524-4.788 19.892c-32.246 30.546-75.792 49.281-123.713 49.281v-359.847c90.492 0 165.384 66.809 178.04 153.792 1.242 8.532-5.538 14.257-5.538 23.132z" fill="#ffc024"/></g></g></g></g></g></g></g></g></g></g></g></g></g></g></g></g></g><g><g><path d="m165.85 205.704c-10.439 0-20.867-1.956-30.646-5.843l11.08-27.879c23.017 9.145 48.938 1.314 63.036-19.054l24.668 17.074c-10.623 15.347-26.313 26.772-44.18 32.174-7.794 2.357-15.88 3.528-23.958 3.528z" fill="#7f6866"/></g><g><path d="m346.149 205.704c-8.079 0-16.163-1.172-23.958-3.527-17.865-5.401-33.556-16.827-44.179-32.174l24.668-17.074c14.097 20.365 40.018 28.202 63.035 19.054l11.08 27.879c-9.778 3.885-20.208 5.842-30.646 5.842z" fill="#634c4c"/></g></g><g><g><g><path d="m191.52 265.25-10.41 33.42-104.75-32.64c-.19-3.32-.28-6.66-.28-10.03 0-8.87.64-17.6 1.89-26.13z" fill="#efe8e6"/></g></g><g><path d="m435.92 256c0 3.37-.09 6.71-.28 10.03l-104.75 32.64-10.41-33.42 113.55-35.38c1.25 8.53 1.89 17.26 1.89 26.13z" fill="#e0d4d1"/></g><g><g><path d="m191.52 368.19-59.23 18.45c-9.23-8.74-17.52-18.44-24.73-28.95l73.55-22.92z" fill="#efe8e6"/></g></g><g><path d="m404.44 357.69c-7.21 10.51-15.5 20.21-24.73 28.95l-59.23-18.45 10.41-33.42z" fill="#e0d4d1"/></g></g><path d="m313.707 383h-115.415c-20.248 0-36.662-16.414-36.662-36.662v-59.238c0-20.248 16.414-36.662 36.662-36.662h115.415c20.248 0 36.662 16.414 36.662 36.662v59.238c0 20.248-16.414 36.662-36.662 36.662z" fill="#fff"/><path d="m350.37 287.1v59.24c0 20.25-16.42 36.66-36.66 36.66h-57.71v-132.56h57.71c20.24 0 36.66 16.41 36.66 36.66z" fill="#efe8e6"/></g></g></svg>