<svg id="Layer_1" enable-background="new 0 0 512 512" height="512" viewBox="0 0 512 512" width="512" xmlns="http://www.w3.org/2000/svg"><g><g><g><g id="XMLID_3526_"><g id="XMLID_3527_"><g id="XMLID_3528_"><g id="XMLID_3529_"><g id="XMLID_3530_"><g id="XMLID_3546_"><g id="XMLID_3547_"><g id="XMLID_3548_"><g id="XMLID_3549_"><g id="XMLID_3550_"><g id="XMLID_3551_"><g id="XMLID_3552_"><g id="XMLID_3553_"><g id="XMLID_3554_"><g id="XMLID_3555_"><circle cx="256" cy="256" fill="#4f4359" r="256"/></g></g></g></g></g></g></g></g></g></g></g></g></g></g></g></g></g><path d="m511.98 257.604-125.738-125.737-254.376 254.376 125.737 125.737c140.11-.862 253.515-114.266 254.377-254.376z" fill="#372a44"/><g><g><g><g id="XMLID_3489_"><g id="XMLID_3490_"><g id="XMLID_3491_"><g id="XMLID_3492_"><g id="XMLID_3493_"><g id="XMLID_3494_"><g id="XMLID_3516_"><g id="XMLID_3517_"><g id="XMLID_3518_"><g id="XMLID_3519_"><g id="XMLID_3520_"><g id="XMLID_3521_"><g id="XMLID_3522_"><g id="XMLID_3523_"><g id="XMLID_3524_"><circle cx="255.999" cy="256" fill="#fed940" r="179.923"/></g></g></g></g></g></g></g></g></g></g></g></g></g></g></g></g></g><g><g><g id="XMLID_3319_"><g id="XMLID_3348_"><g id="XMLID_3380_"><g id="XMLID_3381_"><g id="XMLID_3397_"><g id="XMLID_3398_"><g id="XMLID_3399_"><g id="XMLID_3400_"><g id="XMLID_3430_"><g id="XMLID_3461_"><g id="XMLID_3462_"><g id="XMLID_3463_"><g id="XMLID_3464_"><g id="XMLID_3465_"><g><path d="m435.923 256c0 99.367-80.557 179.924-179.924 179.924v-359.848c99.368 0 179.924 80.557 179.924 179.924z" fill="#ffc024"/></g></g></g></g></g></g></g></g></g></g></g></g></g></g></g></g></g><path d="m192.163 336.923h127.673v35h-127.673z" fill="#7f6866"/><path d="m256 336.926h63.84v35h-63.84z" fill="#634c4c"/><g><circle cx="193.811" cy="185" fill="#7f6866" r="28.645"/><circle cx="318.189" cy="185" fill="#634c4c" r="28.645"/></g><path d="m256 247.857v55.077l194.114-10.134c9.259-.483 16.519-8.132 16.519-17.404 0-9.272-7.26-16.921-16.519-17.404z" fill="#eaa711"/></g></g></svg>