<svg id="Layer_1" enable-background="new 0 0 512 512" height="512" viewBox="0 0 512 512" width="512" xmlns="http://www.w3.org/2000/svg"><g><g><g><g id="XMLID_3703_"><g id="XMLID_3704_"><g id="XMLID_3705_"><g id="XMLID_3706_"><g id="XMLID_3707_"><g id="XMLID_3708_"><g id="XMLID_3709_"><g id="XMLID_3710_"><g id="XMLID_3711_"><g id="XMLID_3712_"><g id="XMLID_3713_"><g id="XMLID_3714_"><g id="XMLID_3715_"><g id="XMLID_3716_"><g id="XMLID_3717_"><circle cx="256" cy="256" fill="#4f4359" r="256"/></g></g></g></g></g></g></g></g></g></g></g></g></g></g></g></g></g><path d="m511.98 257.604-125.738-125.737-254.376 254.376 125.737 125.737c140.11-.862 253.515-114.266 254.377-254.376z" fill="#372a44"/><g><g><g id="XMLID_3684_"><g id="XMLID_3688_"><g id="XMLID_3689_"><g id="XMLID_3690_"><g id="XMLID_3691_"><g id="XMLID_3692_"><g id="XMLID_3693_"><g id="XMLID_3694_"><g id="XMLID_3695_"><g id="XMLID_3696_"><g id="XMLID_3697_"><g id="XMLID_3698_"><g id="XMLID_3699_"><g id="XMLID_3700_"><g id="XMLID_3701_"><circle cx="255.999" cy="256" fill="#fed940" r="179.923"/></g></g></g></g></g></g></g></g></g></g></g></g></g></g></g></g></g><g><g><g id="XMLID_3469_"><g id="XMLID_3470_"><g id="XMLID_3471_"><g id="XMLID_3487_"><g id="XMLID_3488_"><g id="XMLID_3525_"><g id="XMLID_3556_"><g id="XMLID_3669_"><g id="XMLID_3670_"><g id="XMLID_3671_"><g id="XMLID_3672_"><g id="XMLID_3673_"><g id="XMLID_3674_"><g id="XMLID_3675_"><g><path d="m435.923 256c0 99.367-80.557 179.924-179.924 179.924v-359.848c99.368 0 179.924 80.557 179.924 179.924z" fill="#ffc024"/></g></g></g></g></g></g></g></g></g></g></g></g></g></g></g></g></g><g><g><path d="m165.371 237.621-17.098-24.652 34.562-23.969-34.562-23.969 17.098-24.652 70.104 48.621z" fill="#7f6866"/></g><g><g><path d="m346.628 237.621 17.097-24.652-34.561-23.969 34.561-23.969-17.097-24.652-70.105 48.621z" fill="#634c4c"/></g></g></g><path d="m328.218 297.915c2.477 3.126 4.766 6.433 6.846 9.909l27.037 45.176c-68.756-23.653-143.445-23.653-212.201 0h-.001l27.037-45.176c2.173-3.632 4.575-7.079 7.18-10.329l71.884-21.162z" fill="#7f6866"/><path d="m362.1 353c-34.38-11.82-70.24-17.74-106.1-17.74v-58.93l70.82 21.17 1.4.42c2.47 3.12 4.76 6.43 6.84 9.9z" fill="#634c4c"/><path d="m255.999 263c-28.171 0-54.536 12.869-71.879 34.5h143.757c-17.342-21.631-43.707-34.5-71.878-34.5z" fill="#fff"/><path d="m327.88 297.5h-71.88v-34.5c28.17 0 54.54 12.87 71.88 34.5z" fill="#efe8e6"/></g></svg>