<svg id="Layer_1" enable-background="new 0 0 512 512" height="512" viewBox="0 0 512 512" width="512" xmlns="http://www.w3.org/2000/svg"><g><g><g><g id="XMLID_3640_"><g id="XMLID_3641_"><g id="XMLID_3642_"><g id="XMLID_3643_"><g id="XMLID_3644_"><g id="XMLID_3645_"><g id="XMLID_3676_"><g id="XMLID_3677_"><g id="XMLID_3678_"><g id="XMLID_3679_"><g id="XMLID_3680_"><g id="XMLID_3681_"><g id="XMLID_3682_"><g id="XMLID_3683_"><g id="XMLID_3702_"><circle cx="256" cy="256" fill="#4f4359" r="256"/></g></g></g></g></g></g></g></g></g></g></g></g></g></g></g></g></g><path d="m511.98 257.604-125.738-125.737-254.376 254.376 125.737 125.737c140.11-.862 253.515-114.266 254.377-254.376z" fill="#372a44"/><g><g><g><g id="XMLID_3498_"><g id="XMLID_3499_"><g id="XMLID_3500_"><g id="XMLID_3501_"><g id="XMLID_3578_"><g id="XMLID_3579_"><g id="XMLID_3580_"><g id="XMLID_3581_"><g id="XMLID_3582_"><g id="XMLID_3583_"><g id="XMLID_3584_"><g id="XMLID_3606_"><g id="XMLID_3607_"><g id="XMLID_3608_"><g id="XMLID_3609_"><circle cx="255.999" cy="256" fill="#fed940" r="179.923"/></g></g></g></g></g></g></g></g></g></g></g></g></g></g></g></g></g><g><g><g id="XMLID_3264_"><g id="XMLID_3265_"><g id="XMLID_3266_"><g id="XMLID_3267_"><g id="XMLID_3268_"><g id="XMLID_3269_"><g id="XMLID_3270_"><g id="XMLID_3271_"><g id="XMLID_3272_"><g id="XMLID_3273_"><g id="XMLID_3274_"><g id="XMLID_3275_"><g id="XMLID_3276_"><g id="XMLID_3277_"><g><path d="m435.923 256c0 99.367-80.557 179.924-179.924 179.924v-359.848c99.368 0 179.924 80.557 179.924 179.924z" fill="#ffc024"/></g></g></g></g></g></g></g></g></g></g></g></g></g></g></g></g></g><ellipse cx="193.811" cy="198.178" fill="#fff" rx="41.5" ry="53.822"/><ellipse cx="318.189" cy="198.178" fill="#efe8e6" rx="41.5" ry="53.822"/><g><circle cx="193.811" cy="173" fill="#7f6866" r="28.645"/><circle cx="318.189" cy="223.355" fill="#634c4c" r="28.645"/></g><path d="m321.923 379.143c-18.715 0-33.886-15.171-33.886-33.886v-31.307h67.772v31.307c0 18.715-15.171 33.886-33.886 33.886z" fill="#ff3b3b"/><g><path d="m180.056 337.996-44.959-23.682 13.983-26.543 30.976 16.317 37.968-20 37.971 20 37.969-19.999 37.973 20 30.984-16.318 13.98 26.543-44.964 23.681-37.973-20-37.969 20.001-37.971-20z" fill="#7f6866"/></g><g><g><path d="m376.9 314.31-44.96 23.69-37.98-20-37.96 19.99v-33.91l37.96-19.99 37.98 20 30.98-16.32z" fill="#634c4c"/></g></g></g></g></svg>