<svg id="Layer_1" enable-background="new 0 0 512 512" height="512" viewBox="0 0 512 512" width="512" xmlns="http://www.w3.org/2000/svg"><g><g><g><g id="XMLID_3726_"><g id="XMLID_3727_"><g id="XMLID_3728_"><g id="XMLID_3729_"><g id="XMLID_3730_"><g id="XMLID_3731_"><g id="XMLID_3732_"><g id="XMLID_3733_"><g id="XMLID_3734_"><g id="XMLID_3735_"><g id="XMLID_3736_"><g id="XMLID_3737_"><g id="XMLID_3738_"><g id="XMLID_3739_"><g id="XMLID_3740_"><circle cx="256" cy="256" fill="#4f4359" r="256"/></g></g></g></g></g></g></g></g></g></g></g></g></g></g></g></g></g><path d="m511.98 257.604-125.738-125.737-254.376 254.376 125.737 125.737c140.11-.862 253.515-114.266 254.377-254.376z" fill="#372a44"/><g><g><g id="XMLID_3647_"><g id="XMLID_3648_"><g id="XMLID_3649_"><g id="XMLID_3650_"><g id="XMLID_3651_"><g id="XMLID_3685_"><g id="XMLID_3686_"><g id="XMLID_3687_"><g id="XMLID_3718_"><g id="XMLID_3719_"><g id="XMLID_3720_"><g id="XMLID_3721_"><g id="XMLID_3722_"><g id="XMLID_3723_"><g id="XMLID_3724_"><circle cx="255.999" cy="256" fill="#fed940" r="179.923"/></g></g></g></g></g></g></g></g></g></g></g></g></g></g></g></g></g><g><g><g id="XMLID_3466_"><g id="XMLID_3467_"><g id="XMLID_3468_"><g id="XMLID_3495_"><g id="XMLID_3496_"><g id="XMLID_3497_"><g id="XMLID_3610_"><g id="XMLID_3611_"><g id="XMLID_3612_"><g id="XMLID_3613_"><g id="XMLID_3614_"><g id="XMLID_3615_"><g id="XMLID_3616_"><g id="XMLID_3617_"><g><path d="m435.923 256c0 99.367-80.557 179.924-179.924 179.924v-359.848c99.368 0 179.924 80.557 179.924 179.924z" fill="#ffc024"/></g></g></g></g></g></g></g></g></g></g></g></g></g></g></g></g></g><g><g><path d="m138.237 181.256h30c0 10.354 8.424 18.777 18.778 18.777s18.777-8.423 18.777-18.777h30c0 26.896-21.882 48.777-48.777 48.777-26.896.001-48.778-21.881-48.778-48.777z" fill="#7f6866"/></g></g><g><path d="m276.207 181.256h30c0 10.354 8.424 18.777 18.777 18.777 10.354 0 18.778-8.423 18.778-18.777h30c0 26.896-21.882 48.777-48.778 48.777-26.895.001-48.777-21.881-48.777-48.777z" fill="#634c4c"/></g><g><path d="m319.784 313.224c-39.594-22.324-87.977-22.324-127.57 0-13.126 7.401-18.116 23.814-11.329 37.268 7.617 15.101 26.721 20.147 40.802 10.779 20.785-13.828 47.839-13.828 68.624 0 14.081 9.368 33.185 4.322 40.802-10.779 6.787-13.454 1.798-29.866-11.329-37.268z" fill="#7f6866"/><path d="m334.137 337.809c0 4.279-.974 8.622-3.026 12.687-5.012 9.922-14.97 15.499-25.217 15.499-5.337 0-10.757-1.513-15.583-4.724-10.395-6.914-22.358-10.367-34.312-10.367v-54.424c21.987 0 43.983 5.587 63.779 16.743h.009c9.153 5.169 14.35 14.72 14.35 24.586z" fill="#634c4c"/></g><path d="m297.647 261.547 88.813 25.828c21.06 6.444 41.301 25.855 44.457 47.651l1.219 8.416c5.429 37.484-26.592 69.712-64.11 64.525-27.042-3.738-47.618-26.153-49.035-53.415-1.691-32.544-9.823-64.428-23.922-93.807z" fill="#2f9de0"/></g></svg>