<svg id="Layer_1" enable-background="new 0 0 512 512" height="512" viewBox="0 0 512 512" width="512" xmlns="http://www.w3.org/2000/svg"><g><g><g><g id="XMLID_3854_"><g id="XMLID_3855_"><g id="XMLID_3856_"><g id="XMLID_3857_"><g id="XMLID_3858_"><g id="XMLID_3859_"><g id="XMLID_3860_"><g id="XMLID_3861_"><g id="XMLID_3879_"><g id="XMLID_3894_"><g id="XMLID_3895_"><g id="XMLID_3896_"><g id="XMLID_3897_"><g id="XMLID_3898_"><g id="XMLID_3899_"><circle cx="256" cy="256" fill="#4f4359" r="256"/></g></g></g></g></g></g></g></g></g></g></g></g></g></g></g></g></g><path d="m511.98 257.604-128.756-128.828-254.449 254.448 128.828 128.756c140.11-.862 253.515-114.266 254.377-254.376z" fill="#372a44"/><g><g><g id="XMLID_3838_"><g id="XMLID_3839_"><g id="XMLID_3840_"><g id="XMLID_3841_"><g id="XMLID_3842_"><g id="XMLID_3843_"><g id="XMLID_3844_"><g id="XMLID_3845_"><g id="XMLID_3846_"><g id="XMLID_3847_"><g id="XMLID_3848_"><g id="XMLID_3849_"><g id="XMLID_3850_"><g id="XMLID_3851_"><g id="XMLID_3852_"><circle cx="255.999" cy="256" fill="#fed940" r="179.922"/></g></g></g></g></g></g></g></g></g></g></g></g></g></g></g></g></g><g><g><g id="XMLID_3758_"><g id="XMLID_3772_"><g id="XMLID_3789_"><g id="XMLID_3804_"><g id="XMLID_3805_"><g id="XMLID_3806_"><g id="XMLID_3807_"><g id="XMLID_3808_"><g id="XMLID_3824_"><g id="XMLID_3825_"><g id="XMLID_3826_"><g id="XMLID_3827_"><g id="XMLID_3828_"><g id="XMLID_3829_"><g><path d="m383.225 383.225c-70.263 70.263-184.188 70.263-254.451 0l254.451-254.451c70.263 70.264 70.263 184.188 0 254.451z" fill="#ffc024"/></g></g></g></g></g></g></g></g></g></g></g></g></g></g></g></g></g><g><path d="m319.208 343.25c-8.917 8.917-18.724 16.277-29.083 22.069-11.024 6.187-22.663 10.585-34.429 13.174-6.102 1.35-12.24 2.199-18.357 2.56-28.928 1.704-57.205-7.637-77.98-28.412-25.166-25.166-33.545-61.334-25.852-96.336 2.588-11.766 6.986-23.405 13.174-34.429 5.791-10.359 13.152-20.167 22.069-29.083z" fill="#7f6866"/><path d="m319.208 343.25c-8.917 8.917-18.724 16.277-29.083 22.069-11.024 6.187-22.663 10.585-34.429 13.174-6.102 1.35-12.24 2.199-18.357 2.56-28.928 1.704-57.205-7.637-77.98-28.412l84.619-84.619z" fill="#634c4c"/><path d="m233.485 381.201c-27.563.707-54.27-8.704-74.126-28.56s-29.26-46.556-28.56-74.126c19.799 1.966 44.626 14.998 66.157 36.529 21.532 21.531 34.564 46.358 36.529 66.157z" fill="#ff6643"/><path d="m233.485 381.201c-27.563.707-54.27-8.704-74.126-28.56l37.597-37.597c21.532 21.531 34.564 46.358 36.529 66.157z" fill="#ff3b3b"/><path d="m319.208 343.25c-8.917 8.917-18.724 16.277-29.083 22.069l-143.444-143.443c5.791-10.359 13.152-20.167 22.069-29.083z" fill="#fff"/><path d="m319.208 343.25c-8.917 8.917-18.724 16.277-29.083 22.069l-71.722-71.722 25.576-25.576z" fill="#efe8e6"/></g><g><g><path d="m204.911 178.92 5.342-29.522 41.387 7.491-7.49-41.387 29.522-5.342 15.191 83.951z" fill="#7f6866"/></g><g><g><path d="m333.079 307.088 29.522-5.342-7.49-41.387 41.387 7.49 5.342-29.522-83.952-15.19z" fill="#634c4c"/></g></g></g><path d="m210.253 149.399-30.469-42.696c-12.384-17.354-36.339-23.247-55.098-13.555-18.83 9.729-26.101 31.892-16.693 50.885 9.372 18.921 32.163 28.362 52.42 21.717z" fill="#4bccf9"/><path d="m362.6 301.747 42.696 30.469c17.354 12.384 23.247 36.339 13.555 55.098-9.729 18.83-31.892 26.101-50.885 16.693-18.92-9.372-28.362-32.163-21.716-52.42z" fill="#2f9de0"/></g></svg>