<svg id="Layer_1" enable-background="new 0 0 512 512" height="512" viewBox="0 0 512 512" width="512" xmlns="http://www.w3.org/2000/svg"><g><g><g><g id="XMLID_3809_"><g id="XMLID_3810_"><g id="XMLID_3811_"><g id="XMLID_3812_"><g id="XMLID_3813_"><g id="XMLID_3814_"><g id="XMLID_3815_"><g id="XMLID_3816_"><g id="XMLID_3817_"><g id="XMLID_3818_"><g id="XMLID_3819_"><g id="XMLID_3820_"><g id="XMLID_3821_"><g id="XMLID_3822_"><g id="XMLID_3823_"><circle cx="256" cy="256" fill="#4f4359" r="256"/></g></g></g></g></g></g></g></g></g></g></g></g></g></g></g></g></g><path d="m511.98 257.604-125.738-125.737-254.376 254.376 125.737 125.737c140.11-.862 253.515-114.266 254.377-254.376z" fill="#372a44"/><g><g id="XMLID_4223_"><g id="XMLID_4240_"><g id="XMLID_4241_"><g id="XMLID_4242_"><g id="XMLID_4243_"><g id="XMLID_4244_"><g id="XMLID_4245_"><g id="XMLID_4246_"><g id="XMLID_4247_"><g id="XMLID_4248_"><g id="XMLID_4249_"><g id="XMLID_4250_"><g id="XMLID_4251_"><g id="XMLID_4252_"><circle id="XMLID_4253_" cx="255.999" cy="256" fill="#4bccf9" r="179.923"/></g></g></g></g></g></g></g></g></g></g></g></g></g></g></g><g><g><g id="XMLID_3261_"><g id="XMLID_3262_"><g id="XMLID_3278_"><g id="XMLID_3366_"><g id="XMLID_3618_"><g id="XMLID_3619_"><g id="XMLID_3620_"><g id="XMLID_3636_"><g id="XMLID_3637_"><g id="XMLID_3638_"><g id="XMLID_3639_"><g id="XMLID_3646_"><g id="XMLID_3725_"><g id="XMLID_3741_"><path d="m435.923 256c0 99.367-80.557 179.924-179.924 179.924v-359.848c99.368 0 179.924 80.557 179.924 179.924z" fill="#2f9de0"/></g></g></g></g></g></g></g></g></g></g></g></g></g></g></g></g><g><circle cx="193.811" cy="185" fill="#7f6866" r="28.645"/><circle cx="318.189" cy="185" fill="#634c4c" r="28.645"/></g><g><path d="m329.449 353.377h-146.9c-20.237 0-36.794-16.558-36.794-36.794v-21.026c0-20.237 16.557-36.794 36.794-36.794h146.9c20.237 0 36.794 16.557 36.794 36.794v21.026c.001 20.237-16.557 36.794-36.794 36.794z" fill="#fff"/><path d="m366.24 295.56v21.02c0 20.24-16.55 36.8-36.79 36.8h-73.45v-94.62h73.45c20.24 0 36.79 16.56 36.79 36.8z" fill="#efe8e6"/><g><g><path d="m194.4 258.76h30v94.62h-30z" fill="#efe8e6"/></g><g><path d="m287.6 258.76h30v94.62h-30z" fill="#e0d4d1"/></g></g></g><path d="m188.474 353.377 12.978 46.29 16.242-19.667 38.305 80.333 38.306-80.333 16.241 19.667 12.979-46.29z" fill="#8ae6ff"/><path d="m323.52 353.38-12.97 46.29-16.25-19.67-38.3 80.33v-106.95z" fill="#6bd4f9"/></g></svg>