<svg id="Layer_1" enable-background="new 0 0 512 512" height="512" viewBox="0 0 512 512" width="512" xmlns="http://www.w3.org/2000/svg"><g><g><g><g id="XMLID_3742_"><g id="XMLID_3743_"><g id="XMLID_3744_"><g id="XMLID_3745_"><g id="XMLID_3746_"><g id="XMLID_3747_"><g id="XMLID_3748_"><g id="XMLID_3749_"><g id="XMLID_3750_"><g id="XMLID_3751_"><g id="XMLID_3752_"><g id="XMLID_3753_"><g id="XMLID_3754_"><g id="XMLID_3755_"><g id="XMLID_3756_"><circle cx="256" cy="256" fill="#4f4359" r="256"/></g></g></g></g></g></g></g></g></g></g></g></g></g></g></g></g></g><path d="m512 256c0-7.138-.306-14.204-.879-21.194l-124.436-124.435-302.822 288.793 103.522 103.522c21.838 6.061 44.846 9.314 68.615 9.314 141.385 0 256-114.615 256-256z" fill="#372a44"/><g><g><path d="m256.002 58.961s-.001 0-.002 0-.001 0-.002 0c-98.151.001-189.734 53.641-182.135 226.47 5 113.732 10 113.732 10 113.732h349.274s5 0 5-113.732c0-172.996-83.984-226.469-182.135-226.47z" fill="#c48458"/><path d="m438.14 285.43c0 113.73-5 113.73-5 113.73h-177.14v-340.2c98.15 0 182.14 53.48 182.14 226.47z" fill="#a36d48"/><g><path d="m373.399 226.576c-2.067 0-4.091.226-6.063.637-15.596-54.663-59.55-94.053-111.338-94.053s-95.742 39.389-111.338 94.053c-1.972-.412-3.996-.637-6.063-.637-19.929 0-36.084 19.916-36.084 44.483s16.156 44.484 36.084 44.484c2.067 0 4.091-.226 6.063-.638 15.596 54.663 59.55 94.053 111.338 94.053s95.742-39.389 111.338-94.053c1.972.412 3.996.638 6.063.638 19.929 0 36.084-19.916 36.084-44.484 0-24.567-16.155-44.483-36.084-44.483z" fill="#ffe1cc"/><path d="m409.487 271.062c0 24.564-16.161 44.485-36.089 44.485-2.069 0-4.093-.232-6.064-.639-15.592 54.661-59.549 94.053-111.336 94.053v-275.799c51.787 0 95.744 39.385 111.336 94.053 1.971-.415 3.995-.639 6.064-.639 3.244 0 6.382.531 9.376 1.518 15.381 5.084 26.713 22.392 26.713 42.968z" fill="#ffcfae"/></g><g><path d="m200.692 325.743-1.751-.66c26.37 63.559 87.746 63.559 114.116 0l-1.751.66c-36.313 13.694-74.302 13.694-110.614 0z" fill="#ff6643"/><path d="m313.055 325.083c-13.183 31.78-35.12 47.669-57.057 47.669v-36.736c18.574 0 37.148-3.428 55.309-10.273z" fill="#ff3b3b"/></g><g><ellipse cx="212.531" cy="267.478" fill="#7f6866" rx="20.022" ry="20.022" transform="matrix(.16 -.987 .987 .16 -85.537 434.42)"/><ellipse cx="299.467" cy="267.478" fill="#634c4c" rx="20.022" ry="20.022" transform="matrix(.707 -.707 .707 .707 -101.424 290.098)"/></g><path d="m404.612 239.35s-7.626-147.683-148.61-147.683c0 0-46.001 1.333-65.335 13.333-99.609 47.972-88.382 141.72-88.382 141.72 70.411-7.731 100.092-54.208 112.092-84.566 25.031 16.679 88.364 53.447 190.235 77.196z" fill="#c48458"/><path d="m404.61 239.35c-65.4-15.25-114.91-35.86-148.61-53.08v-94.6c140.99 0 148.61 147.68 148.61 147.68z" fill="#a36d48"/></g><g fill="none" stroke="#ff9388" stroke-miterlimit="10" stroke-width="35"><path d=""/><path d=""/></g></g></g></svg>